<svg width="88" height="82" viewBox="0 0 88 82" fill="none" xmlns="http://www.w3.org/2000/svg">
<path fill-rule="evenodd" clip-rule="evenodd" d="M84.4749 0.0528959C84.7219 0.176391 84.822 0.476727 84.6985 0.723716C84.6508 0.819142 84.6031 0.914574 84.5554 1.01001C84.5602 2.57651 84.5971 4.09999 84.8252 5.62523C84.9982 6.78189 85.2401 7.92609 85.4965 9.08006C85.5477 9.31067 85.5996 9.54192 85.6516 9.77374L85.6517 9.77427L85.6518 9.77468C85.8589 10.6977 86.068 11.63 86.2472 12.568C86.3042 12.8667 86.3588 13.1623 86.4131 13.4559C86.5514 14.2043 86.6872 14.9396 86.8546 15.678C86.8745 15.7657 86.887 15.8723 86.8965 15.953L86.8966 15.9533L86.8979 15.9651C86.9091 16.06 86.9193 16.1452 86.9336 16.2245C86.9446 16.2849 86.9556 16.3269 86.9647 16.3541C87.148 16.4976 87.2113 16.7548 87.1032 16.9711C86.9797 17.2181 86.6794 17.3182 86.4324 17.1947C86.223 17.09 86.1154 16.9085 86.06 16.7842C86.0021 16.654 85.9701 16.5153 85.9497 16.4029C85.9295 16.2918 85.9163 16.1792 85.9059 16.0917L85.9048 16.0822C85.8928 15.9805 85.8859 15.928 85.8793 15.899C85.7072 15.1397 85.5658 14.3741 85.4261 13.6184L85.4255 13.6148C85.3722 13.3267 85.3193 13.04 85.265 12.7557C85.0891 11.835 84.8844 10.9226 84.6778 10.0014L84.6776 10.0006L84.6776 10.0005C84.6251 9.76669 84.5725 9.53226 84.5203 9.29696C84.263 8.13926 84.0146 6.96645 83.8362 5.77312C83.695 4.8288 83.6243 3.88922 83.5891 2.95356C82.2244 5.70913 80.8801 8.4666 79.5417 11.212L79.5413 11.2129L79.5413 11.2129C71.8379 27.0147 64.3292 42.417 54.2443 54.7586C41.902 69.8626 25.6846 80.4115 0.524571 81.6489C0.248763 81.6624 0.014179 81.4499 0.000614641 81.174C-0.0129497 80.8982 0.199642 80.6637 0.475451 80.6501C25.3187 79.4283 41.2839 69.0386 53.4699 54.1258C63.474 41.8832 70.9199 26.6117 78.622 10.8151L78.622 10.815L78.6227 10.8136C80.0985 7.78684 81.5837 4.7408 83.098 1.69309C81.7252 2.44108 80.4108 3.31729 79.0834 4.20221L79.0833 4.20228L79.0831 4.20235C78.7158 4.44722 78.3475 4.69276 77.9767 4.93643C76.9779 5.59271 75.9798 6.25451 74.9806 6.91699L74.9797 6.91762L74.9778 6.91888L74.9772 6.91928L74.977 6.91938C73.1856 8.10717 71.3909 9.2971 69.5836 10.4612C69.401 10.5788 69.1274 10.7146 68.8531 10.8499L68.78 10.8859C68.5132 11.0173 68.2271 11.1582 67.9505 11.309C67.6469 11.4745 67.3736 11.642 67.1659 11.8065C66.9445 11.982 66.8624 12.1044 66.8433 12.1616C66.756 12.4235 66.4728 12.5651 66.2109 12.4778C65.9489 12.3905 65.8073 12.1073 65.8946 11.8453C66.0089 11.5024 66.285 11.2287 66.5448 11.0228C66.8184 10.806 67.1495 10.6068 67.4719 10.431C67.7677 10.2697 68.0721 10.1198 68.3363 9.98972L68.4108 9.95298C68.7043 9.80829 68.9184 9.70017 69.0421 9.62049C70.8449 8.45927 72.6291 7.27629 74.4165 6.09118C75.4179 5.4272 76.4203 4.76256 77.4276 4.1007C77.7853 3.86562 78.1446 3.626 78.5062 3.38485L78.5071 3.38427L78.5079 3.38368C80.1425 2.29347 81.8239 1.17211 83.623 0.297148C83.7065 0.154618 83.8585 0.0571083 84.0338 0.0498596C84.1685 -0.0150909 84.3308 -0.0191591 84.4749 0.0528959ZM86.9773 16.385C86.9773 16.3851 86.9766 16.384 86.9754 16.3814C86.9767 16.3836 86.9774 16.3849 86.9773 16.385Z" fill="#FB8251"/>
</svg>
