<svg width="60" height="60" viewBox="0 0 60 60" fill="none" xmlns="http://www.w3.org/2000/svg">
<path d="M23.3335 32.667C23.3335 33.4581 23.0989 34.2315 22.6594 34.8893C22.2198 35.5471 21.5951 36.0598 20.8642 36.3625C20.1333 36.6653 19.329 36.7445 18.5531 36.5901C17.7772 36.4358 17.0645 36.0548 16.5051 35.4954C15.9456 34.936 15.5647 34.2233 15.4103 33.4474C15.256 32.6714 15.3352 31.8672 15.638 31.1363C15.9407 30.4054 16.4534 29.7806 17.1112 29.3411C17.769 28.9016 18.5424 28.667 19.3335 28.667C20.3943 28.667 21.4118 29.0884 22.1619 29.8386C22.9121 30.5887 23.3335 31.6061 23.3335 32.667ZM59.3335 24.667C59.4281 29.8746 58.0876 35.0079 55.4588 39.5043C55.8748 40.3443 57.3708 45.1043 59.1921 50.491C59.4165 51.1611 59.3657 51.893 59.0508 52.5257C58.2668 54.123 53.8001 59.3337 30.0001 59.3337C6.20015 59.3337 1.74682 54.123 0.946816 52.5257C0.631954 51.893 0.58112 51.1611 0.805483 50.491L5.23482 37.2003C3.94641 36.5945 2.84429 35.6538 2.04354 34.4766C1.24279 33.2994 0.772782 31.9288 0.682597 30.5079C0.592413 29.087 0.885359 27.668 1.53084 26.399C2.17633 25.13 3.15068 24.0575 4.35215 23.2937C3.10519 21.3503 2.38189 19.1175 2.25246 16.8121C2.12303 14.5067 2.59188 12.2071 3.61348 10.1363C4.40273 8.37133 5.79173 6.94301 7.53401 6.10482C9.27629 5.26663 11.2592 5.07278 13.1308 5.55766C15.2641 3.52833 20.0375 0.666992 30.0001 0.666992C48.1175 0.666992 59.3335 13.1257 59.3335 24.667ZM13.5495 52.7763C11.2876 50.6392 9.46189 48.0835 8.17348 45.251L6.42148 50.5043C8.65447 51.6531 11.0636 52.421 13.5495 52.7763ZM46.9841 43.0377C34.3468 41.3657 25.0801 32.3123 19.4215 21.0563C13.7761 28.6857 6.00015 25.8163 6.00015 30.0003C6.00015 30.7076 6.2811 31.3858 6.7812 31.8859C7.28129 32.386 7.95957 32.667 8.66682 32.667C9.37406 32.667 10.0523 32.9479 10.5524 33.448C11.0525 33.9481 11.3335 34.6264 11.3335 35.3337C11.3429 39.5924 12.8082 43.72 15.4864 47.0313C18.1646 50.3426 21.8946 52.6385 26.0573 53.5381C30.22 54.4376 34.5652 53.8867 38.3717 51.9767C42.1782 50.0667 45.2171 46.9126 46.9841 43.0377ZM53.5815 50.5043L51.8295 45.2537C50.5438 48.0855 48.7187 50.6398 46.4561 52.7737C48.9412 52.4197 51.3495 51.6527 53.5815 50.5043ZM54.0001 24.667C54.0001 15.6883 44.8241 6.00033 30.0001 6.00033C14.6161 6.00033 16.6828 12.987 12.8081 11.0537C12.4303 10.8232 12.0067 10.678 11.567 10.6282C11.1272 10.5784 10.6819 10.6253 10.2621 10.7654C9.84234 10.9056 9.45823 11.1358 9.13662 11.4398C8.81502 11.7438 8.56367 12.1144 8.40015 12.5257C7.73889 14.0027 7.50117 15.6345 7.71355 17.2388C7.92592 18.8431 8.58002 20.3569 9.60281 21.611H9.65082C11.3705 21.1677 12.9336 20.256 14.1661 18.9773C15.3986 17.6987 16.2523 16.1032 16.6321 14.3683C16.5521 14.6883 16.6321 11.355 19.3415 11.355C23.6321 11.355 25.7415 34.7203 47.5548 37.6937C48.3948 37.8083 49.2561 37.8883 50.1441 37.9257C52.8072 34.0288 54.158 29.3842 54.0001 24.667Z" fill="#FB8251"/>
</svg>
