<svg width="48" height="60" viewBox="0 0 48 60" fill="none" xmlns="http://www.w3.org/2000/svg">
<path d="M45.3333 8.66699C35.7093 8.66699 25.6987 1.27499 25.6 1.20033C25.1384 0.854133 24.577 0.666992 24 0.666992C23.423 0.666992 22.8616 0.854133 22.4 1.20033C22.3013 1.27499 12.2907 8.66699 2.66667 8.66699C1.95942 8.66699 1.28115 8.94794 0.781048 9.44804C0.280951 9.94814 0 10.6264 0 11.3337C0 12.9337 0.266668 50.611 23.064 59.1657C23.6663 59.3884 24.3284 59.3884 24.9307 59.1657C47.7333 50.611 48 12.9337 48 11.3337C48 10.6264 47.7191 9.94814 47.219 9.44804C46.7189 8.94794 46.0406 8.66699 45.3333 8.66699ZM24 53.7923C8.53333 47.067 5.88 21.9283 5.42667 13.8483C12.0816 12.8361 18.4269 10.3517 24 6.57633C29.5731 10.3517 35.9184 12.8361 42.5733 13.8483C42.1333 21.9283 39.4667 47.067 24 53.7923ZM13.3333 27.3337C13.3333 29.4433 13.9589 31.5056 15.131 33.2597C16.3031 35.0139 17.969 36.381 19.918 37.1884C21.8671 37.9957 24.0118 38.2069 26.081 37.7954C28.1501 37.3838 30.0507 36.3679 31.5425 34.8761C33.0342 33.3844 34.0501 31.4838 34.4617 29.4146C34.8733 27.3455 34.6621 25.2008 33.8547 23.2517C33.0474 21.3026 31.6802 19.6367 29.9261 18.4646C28.172 17.2926 26.1097 16.667 24 16.667C21.171 16.667 18.4579 17.7908 16.4575 19.7912C14.4571 21.7916 13.3333 24.5047 13.3333 27.3337ZM29.3333 27.3337C29.3333 28.3885 29.0205 29.4196 28.4345 30.2967C27.8485 31.1738 27.0155 31.8573 26.041 32.261C25.0664 32.6647 23.9941 32.7703 22.9595 32.5645C21.925 32.3587 20.9746 31.8508 20.2288 31.1049C19.4829 30.359 18.9749 29.4087 18.7691 28.3741C18.5634 27.3396 18.669 26.2672 19.0726 25.2927C19.4763 24.3181 20.1599 23.4852 21.037 22.8992C21.914 22.3131 22.9452 22.0003 24 22.0003C25.4145 22.0003 26.771 22.5622 27.7712 23.5624C28.7714 24.5626 29.3333 25.9192 29.3333 27.3337Z" fill="#FB8251"/>
</svg>
