<svg width="150" height="22" viewBox="0 0 150 22" fill="none" xmlns="http://www.w3.org/2000/svg">
<path d="M36.6036 17.3644C37.8753 17.3644 38.9312 17.0535 39.7714 16.4315C40.6116 15.8096 41.0317 14.9525 41.0317 13.8603C41.0317 13.0866 40.8235 12.4457 40.4072 11.9375C39.9909 11.4294 39.48 11.0691 38.8744 10.8567C38.2689 10.6443 37.6671 10.4585 37.0691 10.2992C36.4711 10.14 35.964 9.95033 35.5477 9.73038C35.1314 9.51042 34.9232 9.21082 34.9232 8.83158C34.9232 8.43717 35.0822 8.13758 35.4001 7.93279C35.718 7.728 36.1116 7.62561 36.5809 7.62561C37.6103 7.62561 38.3218 8.05794 38.7155 8.9226L40.7819 7.76213C40.3883 7.01883 39.8244 6.43859 39.0901 6.02143C38.3559 5.60427 37.5195 5.39569 36.5809 5.39569C35.4001 5.39569 34.4123 5.71425 33.6175 6.35137C32.8227 6.98849 32.4254 7.83039 32.4254 8.87709C32.4254 9.63557 32.6335 10.2613 33.0498 10.7543C33.4661 11.2473 33.9771 11.6 34.5826 11.8124C35.1882 12.0248 35.7899 12.2106 36.3879 12.3699C36.9859 12.5292 37.493 12.7226 37.9093 12.9501C38.3256 13.1776 38.5338 13.4735 38.5338 13.8375C38.5338 14.687 37.8904 15.1118 36.6036 15.1118C35.3168 15.1118 34.4766 14.5657 34.083 13.4735L31.9712 14.7022C32.3345 15.5365 32.9174 16.1888 33.7197 16.6591C34.5221 17.1293 35.4834 17.3644 36.6036 17.3644ZM45.6414 21.6195V15.4531C46.5648 16.7273 47.8895 17.3644 49.6153 17.3644C51.1745 17.3644 52.5068 16.788 53.6119 15.6351C54.717 14.4822 55.2696 13.0639 55.2696 11.3801C55.2696 9.71141 54.717 8.29686 53.6119 7.13639C52.5068 5.97592 51.1745 5.39569 49.6153 5.39569C47.8895 5.39569 46.5648 6.04039 45.6414 7.3298V5.69149H43.1889V21.6195H45.6414ZM49.2292 15.0207C48.1998 15.0207 47.3445 14.6794 46.6632 13.9968C45.982 13.299 45.6414 12.4268 45.6414 11.3801C45.6414 10.3334 45.982 9.46491 46.6632 8.7747C47.3445 8.08448 48.1998 7.73938 49.2292 7.73938C50.2587 7.73938 51.114 8.08448 51.7952 8.7747C52.4765 9.46491 52.8171 10.3334 52.8171 11.3801C52.8171 12.4268 52.4765 13.2952 51.7952 13.9854C51.114 14.6756 50.2587 15.0207 49.2292 15.0207ZM62.854 17.3644C64.5344 17.3644 65.9536 16.788 67.1117 15.6351C68.2698 14.4822 68.8489 13.0639 68.8489 11.3801C68.8489 9.69625 68.2698 8.27789 67.1117 7.12501C65.9536 5.97213 64.5344 5.39569 62.854 5.39569C61.1888 5.39569 59.7733 5.97213 58.6076 7.12501C57.4419 8.27789 56.8591 9.69625 56.8591 11.3801C56.8591 13.0639 57.4419 14.4822 58.6076 15.6351C59.7733 16.788 61.1888 17.3644 62.854 17.3644ZM62.854 14.9752C61.8549 14.9752 61.0147 14.6339 60.3334 13.9513C59.6522 13.2687 59.3116 12.4116 59.3116 11.3801C59.3116 10.3485 59.6522 9.49146 60.3334 8.80883C61.0147 8.1262 61.8549 7.78489 62.854 7.78489C63.8532 7.78489 64.6933 8.1262 65.3746 8.80883C66.0558 9.49146 66.3964 10.3485 66.3964 11.3801C66.3964 12.4116 66.0558 13.2687 65.3746 13.9513C64.6933 14.6339 63.8532 14.9752 62.854 14.9752ZM75.2071 17.3644C76.8118 17.3644 77.9851 16.7804 78.7269 15.6124V17.0686H81.1793V5.69149H78.7269V11.7896C78.7269 12.897 78.4619 13.72 77.9321 14.2585C77.4022 14.797 76.7059 15.0663 75.843 15.0663C75.0557 15.0663 74.4351 14.8387 73.9809 14.3836C73.5267 13.9285 73.2997 13.2763 73.2997 12.4268V5.69149H70.8472V12.6771C70.8472 14.1333 71.2484 15.2786 72.0507 16.113C72.8531 16.9473 73.9052 17.3644 75.2071 17.3644ZM87.8555 17.3644C89.1271 17.3644 90.183 17.0535 91.0232 16.4315C91.8634 15.8096 92.2835 14.9525 92.2835 13.8603C92.2835 13.0866 92.0754 12.4457 91.659 11.9375C91.2427 11.4294 90.7318 11.0691 90.1263 10.8567C89.5207 10.6443 88.9189 10.4585 88.321 10.2992C87.723 10.14 87.2159 9.95033 86.7995 9.73038C86.3832 9.51042 86.1751 9.21082 86.1751 8.83158C86.1751 8.43717 86.334 8.13758 86.6519 7.93279C86.9698 7.728 87.3635 7.62561 87.8328 7.62561C88.8622 7.62561 89.5737 8.05794 89.9673 8.9226L92.0337 7.76213C91.6401 7.01883 91.0762 6.43859 90.342 6.02143C89.6078 5.60427 88.7713 5.39569 87.8328 5.39569C86.6519 5.39569 85.6641 5.71425 84.8694 6.35137C84.0746 6.98849 83.6772 7.83039 83.6772 8.87709C83.6772 9.63557 83.8854 10.2613 84.3017 10.7543C84.718 11.2473 85.2289 11.6 85.8344 11.8124C86.44 12.0248 87.0418 12.2106 87.6397 12.3699C88.2377 12.5292 88.7449 12.7226 89.1612 12.9501C89.5775 13.1776 89.7856 13.4735 89.7856 13.8375C89.7856 14.687 89.1422 15.1118 87.8555 15.1118C86.5687 15.1118 85.7285 14.5657 85.3349 13.4735L83.223 14.7022C83.5864 15.5365 84.1692 16.1888 84.9715 16.6591C85.7739 17.1293 86.7352 17.3644 87.8555 17.3644ZM99.6863 17.3644C101.881 17.3644 103.539 16.5377 104.659 14.8842L102.638 13.701C101.987 14.6415 101.011 15.1118 99.709 15.1118C98.7704 15.1118 97.9756 14.8804 97.3247 14.4178C96.6737 13.9551 96.2574 13.2914 96.0757 12.4268H105.114C105.174 12.002 105.204 11.6607 105.204 11.4028C105.204 9.73417 104.671 8.31582 103.603 7.14777C102.536 5.97971 101.17 5.39569 99.5046 5.39569C97.7486 5.39569 96.3104 5.96834 95.1901 7.11363C94.0699 8.25893 93.5097 9.68108 93.5097 11.3801C93.5097 13.1094 94.0774 14.5391 95.2128 15.6692C96.3482 16.7994 97.8394 17.3644 99.6863 17.3644ZM102.729 10.4244H96.053C96.2196 9.55972 96.6056 8.87709 97.2111 8.3765C97.8167 7.8759 98.5736 7.62561 99.4819 7.62561C100.284 7.62561 100.984 7.86073 101.582 8.33099C102.18 8.80124 102.563 9.49904 102.729 10.4244ZM112.653 17.3644C113.758 17.3644 114.764 17.099 115.673 16.568C116.581 16.0371 117.277 15.3166 117.762 14.4064L115.65 13.2004C115.377 13.7313 114.973 14.1561 114.435 14.4746C113.898 14.7932 113.296 14.9525 112.63 14.9525C111.631 14.9525 110.794 14.6112 110.121 13.9285C109.447 13.2459 109.11 12.3964 109.11 11.3801C109.11 10.3637 109.447 9.51421 110.121 8.83158C110.794 8.14895 111.631 7.80764 112.63 7.80764C113.311 7.80764 113.913 7.96313 114.435 8.2741C114.957 8.58508 115.347 9.01362 115.605 9.55972L117.716 8.33099C117.262 7.43599 116.581 6.72302 115.673 6.19209C114.764 5.66115 113.758 5.39569 112.653 5.39569C110.942 5.39569 109.515 5.96834 108.372 7.11363C107.229 8.25893 106.658 9.68108 106.658 11.3801C106.658 13.0639 107.229 14.4822 108.372 15.6351C109.515 16.788 110.942 17.3644 112.653 17.3644ZM121.986 17.0686V0.458008H119.533V17.0686H121.986ZM128.957 17.3644C130.562 17.3644 131.735 16.7804 132.477 15.6124V17.0686H134.929V5.69149H132.477V11.7896C132.477 12.897 132.212 13.72 131.682 14.2585C131.152 14.797 130.456 15.0663 129.593 15.0663C128.805 15.0663 128.185 14.8387 127.731 14.3836C127.276 13.9285 127.049 13.2763 127.049 12.4268V5.69149H124.597V12.6771C124.597 14.1333 124.998 15.2786 125.8 16.113C126.603 16.9473 127.655 17.3644 128.957 17.3644ZM144.217 17.3644C145.776 17.3644 147.108 16.7842 148.213 15.6237C149.318 14.4633 149.871 13.0487 149.871 11.3801C149.871 9.69625 149.318 8.27789 148.213 7.12501C147.108 5.97213 145.776 5.39569 144.217 5.39569C142.491 5.39569 141.166 6.03281 140.243 7.30705V1.14064H137.79V17.0686H140.243V15.4303C141.166 16.7197 142.491 17.3644 144.217 17.3644ZM143.831 15.0207C142.801 15.0207 141.946 14.6794 141.265 13.9968C140.583 13.299 140.243 12.4268 140.243 11.3801C140.243 10.3334 140.583 9.46491 141.265 8.7747C141.946 8.08448 142.801 7.73938 143.831 7.73938C144.86 7.73938 145.715 8.08448 146.397 8.7747C147.078 9.46491 147.418 10.3334 147.418 11.3801C147.418 12.4268 147.078 13.2952 146.397 13.9854C145.715 14.6756 144.86 15.0207 143.831 15.0207Z" fill="#F4F4F4"/>
<path d="M24.3224 11.2373C24.3172 11.2373 24.3117 11.2373 24.3064 11.2373C21.608 11.2247 17.654 8.1241 13.7802 3.63628C13.7741 3.62919 13.768 3.62199 13.7619 3.6149C13.76 3.61282 13.7579 3.61038 13.7561 3.6083C13.7507 3.60208 13.7456 3.59621 13.7402 3.58998C13.7371 3.5862 13.7334 3.58192 13.7301 3.57814C13.7269 3.57447 13.724 3.57093 13.7207 3.56727C13.7164 3.56226 13.7128 3.55798 13.7085 3.55297C13.6909 3.53258 13.6729 3.51157 13.6553 3.49105C13.6498 3.48506 13.6445 3.4792 13.639 3.47309C13.6445 3.4792 13.6498 3.48506 13.6553 3.49105C15.9029 1.01958 18.2518 4.57764e-05 20.3556 4.57764e-05C24.5276 4.57764e-05 27.7342 4.01065 27.2646 8.66409C27.2633 8.66874 27.2618 8.67326 27.2604 8.67814C26.7119 10.4561 25.6764 11.2373 24.3228 11.2373H24.3224Z" fill="url(#paint0_linear)"/>
<path d="M6.99845 0.804197C8.94787 0.804197 11.0622 1.74263 12.9314 3.93231C16.9823 8.67773 21.144 11.9931 23.9921 11.9933C25.2219 11.9935 26.2065 11.3758 26.8321 9.98822C26.9948 9.62738 27.1332 9.21435 27.2452 8.74677L27.2647 8.66369C27.1612 9.69202 26.8779 10.752 26.386 11.8067C26.3859 11.8069 26.3859 11.8069 26.3858 11.8072L26.3774 11.8251C26.3774 11.8254 26.3771 11.8256 26.3771 11.8258C26.3758 11.8287 26.3745 11.8314 26.3731 11.8342C26.373 11.8346 26.3728 11.8348 26.3727 11.8352C26.3715 11.8376 26.3703 11.8403 26.3692 11.8427C26.3688 11.8435 26.3686 11.844 26.3682 11.8447L26.3649 11.8517C26.3645 11.8524 26.3642 11.8532 26.3638 11.854C26.3628 11.856 26.362 11.858 26.361 11.8601C26.3604 11.8612 26.3599 11.8624 26.3593 11.8635C26.3585 11.8652 26.3577 11.867 26.3568 11.8688C26.3562 11.8701 26.3555 11.8714 26.3549 11.8728C26.3543 11.8742 26.3537 11.8756 26.3529 11.8769L26.3504 11.8824C26.3499 11.8834 26.3494 11.8845 26.3489 11.8855C26.3479 11.8876 26.3469 11.8895 26.346 11.8915C26.3455 11.8927 26.3449 11.8939 26.3443 11.8951C26.3434 11.8971 26.3424 11.899 26.3414 11.901L26.3403 11.9033L26.3371 11.9103L26.3363 11.9116C26.3336 11.9175 26.3308 11.9231 26.3281 11.929C26.328 11.929 26.3279 11.9292 26.3279 11.9293C26.0987 12.4047 25.8271 12.8788 25.5099 13.3482L25.5011 13.3614C24.146 15.3618 20.9273 18.5267 16.9925 21.0308C15.9773 21.6769 14.8163 22 13.6553 22C12.4944 22 11.3335 21.6769 10.318 21.0308C6.42256 18.5518 3.22903 15.4251 1.85073 13.4217L1.80952 13.3614C-1.65241 6.57612 2.16508 0.804197 6.99845 0.804197ZM15.1759 5.18905L15.2921 5.31242C18.5446 8.75508 21.7313 11.0629 24.0602 11.2278L24.143 11.2329C21.8071 11.1182 18.5835 8.79656 15.2921 5.31259L15.1759 5.18905ZM12.4519 2.31079L12.3845 2.25283C10.5821 0.712571 8.75626 0.0337054 7.08083 0.00122726L6.95546 1.11662e-08C8.68611 -0.000101369 10.5824 0.690124 12.4519 2.31079Z" fill="#F4F4F4"/>
<mask id="mask0" mask-type="alpha" maskUnits="userSpaceOnUse" x="0" y="0" width="28" height="14">
<path d="M23.9922 11.9933C21.144 11.9931 16.9823 8.67773 12.9314 3.93231C11.0622 1.74263 8.94792 0.804197 6.9985 0.804197C2.16513 0.804197 -1.65237 6.57612 1.80957 13.3614C0.547328 11.498 0 9.56157 0 7.75994C0.000366433 3.50285 3.05556 0 6.95501 0C9.05846 0 11.4083 1.02015 13.6554 3.491C17.5767 8.06616 21.5948 11.2373 24.3224 11.2373C25.6798 11.2373 26.7176 10.452 27.2648 8.66369C27.1495 9.16558 27.0044 9.60615 26.8321 9.98822C26.2065 11.3758 25.2219 11.9935 23.9922 11.9933Z" fill="white"/>
</mask>
<g mask="url(#mask0)">
<path d="M23.9922 11.9933C21.144 11.9931 16.9823 8.67773 12.9314 3.93231C11.0622 1.74263 8.94792 0.804197 6.9985 0.804197C2.16513 0.804197 -1.65237 6.57612 1.80957 13.3614C0.547328 11.498 0 9.56157 0 7.75994C0.000366433 3.50285 3.05556 0 6.95501 0C9.05846 0 11.4083 1.02015 13.6554 3.491C17.5767 8.06616 21.5948 11.2373 24.3224 11.2373C25.6798 11.2373 26.7176 10.452 27.2648 8.66369C27.1495 9.16558 27.0044 9.60615 26.8321 9.98822C26.2065 11.3758 25.2219 11.9935 23.9922 11.9933Z" fill="url(#paint1_linear)"/>
</g>
<defs>
<linearGradient id="paint0_linear" x1="19.1802" y1="1.37763" x2="14.0191" y2="8.20529" gradientUnits="userSpaceOnUse">
<stop stop-color="white"/>
<stop offset="0.0547936" stop-color="white"/>
<stop offset="1" stop-color="white" stop-opacity="0.5"/>
</linearGradient>
<linearGradient id="paint1_linear" x1="0.492342" y1="7.57903" x2="27.2616" y2="7.24605" gradientUnits="userSpaceOnUse">
<stop stop-color="white" stop-opacity="0.79"/>
<stop offset="1" stop-color="white" stop-opacity="0.5"/>
</linearGradient>
</defs>
</svg>
