<svg width="1440" height="198" viewBox="0 0 1440 198" fill="none" xmlns="http://www.w3.org/2000/svg">
<path d="M1467.5 160C1467.5 170.876 1462.35 181.543 1452.44 191.9C1442.53 202.259 1427.89 212.276 1408.99 221.833C1371.2 240.947 1316.47 258.175 1248.81 272.648C1113.49 301.593 926.53 319.5 720 319.5C513.47 319.5 326.507 301.593 191.189 272.648C123.526 258.175 68.8025 240.947 31.0072 221.833C12.1088 212.276 -2.53201 202.259 -12.442 191.9C-22.35 181.543 -27.5 170.876 -27.5 160C-27.5 149.124 -22.35 138.457 -12.442 128.1C-2.53201 117.741 12.1088 107.724 31.0072 98.167C68.8025 79.0529 123.526 61.8252 191.189 47.3519C326.507 18.4069 513.47 0.5 720 0.5C926.53 0.5 1113.49 18.4069 1248.81 47.3519C1316.47 61.8252 1371.2 79.0529 1408.99 98.167C1427.89 107.724 1442.53 117.741 1452.44 128.1C1462.35 138.457 1467.5 149.124 1467.5 160Z" stroke="white" stroke-opacity="0.2"/>
</svg>
