<svg width="20" height="20" viewBox="0 0 20 20" fill="none" xmlns="http://www.w3.org/2000/svg">
<path fill-rule="evenodd" clip-rule="evenodd" d="M14.1233 0.0628211C12.2833 -0.0230107 7.72589 -0.0188441 5.88425 0.0628211C4.26595 0.138653 2.83847 0.529479 1.68766 1.68029C-0.0334014 3.40135 -0.0175257 5.65758 0.00484265 8.83649C0.0074711 9.21004 0.0101892 9.59632 0.0101892 9.99598C0.0101892 10.37 0.00818582 10.7315 0.00624848 11.0811C-0.0119614 14.3669 -0.0243354 16.5997 1.68766 18.3117C3.41187 20.0351 5.69297 20.0182 8.83598 19.9948C9.21255 19.992 9.6015 19.9891 10.0033 19.9891H10.0576C13.8691 19.9892 15.193 19.9892 16.5491 19.4641C18.4015 18.745 19.7998 17.0892 19.9365 14.1151C20.0232 12.2743 20.0182 7.71769 19.9365 5.87605C19.7715 2.36528 17.8874 0.236151 14.1233 0.0628211ZM17.0357 17.0392C15.8746 18.2003 14.2993 18.1967 10.8967 18.1889L10.8949 18.1889C10.6034 18.1882 10.2984 18.1875 9.97918 18.1875L9.40684 18.1878C5.6562 18.1905 4.08436 18.1916 2.92264 17.0267C1.71404 15.8238 1.73403 13.9937 1.76304 11.3376C1.76773 10.9079 1.77266 10.4565 1.77266 9.98265C1.77266 9.58083 1.76906 9.18882 1.76556 8.80782L1.76556 8.8078C1.72898 4.82324 1.70345 2.04213 5.92092 1.82612L5.96874 1.82443C6.9926 1.78825 7.33562 1.77612 9.96751 1.77612L10.005 1.80112C10.3855 1.80112 10.759 1.79771 11.124 1.79437C15.0188 1.75877 17.9478 1.732 18.139 5.95605C18.1865 7.0102 18.1974 7.32686 18.1974 9.99515C18.1973 10.2351 18.1975 10.4668 18.1978 10.6905C18.2012 14.3078 18.2027 15.8667 17.0357 17.0392ZM10.0033 4.8644C7.16756 4.8644 4.87177 7.1627 4.87177 9.99598C4.87177 12.8318 7.17006 15.1276 10.0033 15.1276C12.8391 15.1276 15.1349 12.8293 15.1349 9.99598C15.1349 7.1602 12.8366 4.8644 10.0033 4.8644ZM10.0033 13.3268C8.16254 13.3268 6.67257 11.8359 6.67257 9.99598C6.67257 8.15601 8.16338 6.66521 10.0033 6.66521C11.8433 6.66521 13.3341 8.15601 13.3341 9.99598C13.335 11.8359 11.8441 13.3268 10.0033 13.3268ZM16.5374 4.66191C16.5374 5.32418 16.0005 5.86105 15.3383 5.86105C14.676 5.86105 14.1391 5.32418 14.1391 4.66191C14.1391 3.99964 14.676 3.46276 15.3383 3.46276C16.0005 3.46276 16.5374 3.99964 16.5374 4.66191Z" fill="#F4F4F4"/>
</svg>
