<svg width="26" height="26" viewBox="0 0 26 26" fill="none" xmlns="http://www.w3.org/2000/svg">
<path fill-rule="evenodd" clip-rule="evenodd" d="M13 0.5C19.9036 0.5 25.5 6.09644 25.5 13C25.5 19.9036 19.9036 25.5 13 25.5C6.09644 25.5 0.5 19.9036 0.5 13C0.5 6.09644 6.09644 0.5 13 0.5ZM16.7156 14.251H9.28445C9.42313 16.7554 9.97393 19.0353 10.8167 20.7208C11.6015 22.2905 12.4402 23 13 23C13.5598 23 14.3985 22.2905 15.1834 20.7208C16.0261 19.0353 16.5769 16.7554 16.7156 14.251ZM19.2191 14.2516L22.9225 14.2512C22.4939 17.6844 20.3252 20.577 17.3274 22.019C18.3712 20.0153 19.0678 17.294 19.2191 14.2516ZM6.78094 14.2516L3.07752 14.2512C3.50606 17.6844 5.6749 20.5769 8.6733 22.0181C7.69418 20.1404 7.02062 17.6313 6.81564 14.8182L6.78094 14.2516ZM8.63988 3.99806L8.67258 3.98095C7.6287 5.98492 6.932 8.70679 6.7809 11.7497L3.07742 11.7498C3.50406 8.32898 5.65851 5.44479 8.63988 3.99806ZM13 3L12.8984 3.0074C12.3417 3.08644 11.5554 3.80181 10.8167 5.2792C9.9738 6.96494 9.42296 9.24541 9.2844 11.7503H16.7156C16.5771 9.24541 16.0262 6.96494 15.1834 5.2792C14.3985 3.70947 13.5598 3 13 3ZM17.355 4.03405L17.3267 3.98191C20.3255 5.42328 22.4945 8.31634 22.9227 11.75L19.2192 11.7506C19.0695 8.7341 18.3837 6.03307 17.355 4.03405Z" fill="#F4F4F4"/>
</svg>
