<svg width="273" height="40" viewBox="0 0 273 40" fill="none" xmlns="http://www.w3.org/2000/svg">
<path d="M66.552 31.572C68.8641 31.572 70.784 31.0066 72.3116 29.8757C73.8392 28.7449 74.603 27.1866 74.603 25.2008C74.603 23.7941 74.2246 22.6288 73.4676 21.7049C72.7107 20.7809 71.7818 20.1259 70.6808 19.7397C69.5798 19.3536 68.4857 19.0157 67.3984 18.7261C66.3112 18.4365 65.3891 18.0918 64.6322 17.6919C63.8753 17.2919 63.4968 16.7472 63.4968 16.0577C63.4968 15.3406 63.7858 14.7959 64.3638 14.4235C64.9418 14.0512 65.6575 13.865 66.5108 13.865C68.3824 13.865 69.6761 14.6511 70.3917 16.2232L74.1489 14.1132C73.4332 12.7618 72.4079 11.7068 71.073 10.9483C69.738 10.1898 68.2173 9.81061 66.5108 9.81061C64.3638 9.81061 62.5678 10.3898 61.1228 11.5482C59.6777 12.7066 58.9552 14.2373 58.9552 16.1404C58.9552 17.5195 59.3337 18.6572 60.0906 19.5536C60.8475 20.45 61.7765 21.0912 62.8775 21.4773C63.9785 21.8635 65.0726 22.2013 66.1598 22.4909C67.247 22.7805 68.1691 23.1322 68.9261 23.5459C69.683 23.9596 70.0615 24.4975 70.0615 25.1594C70.0615 26.7039 68.8917 27.4762 66.552 27.4762C64.2124 27.4762 62.6848 26.4833 61.9692 24.4975L58.1295 26.7315C58.7901 28.2485 59.8498 29.4344 61.3086 30.2895C62.7674 31.1445 64.5152 31.572 66.552 31.572ZM82.9843 39.3084V28.0968C84.6634 30.4136 87.0718 31.572 90.2096 31.572C93.0447 31.572 95.4668 30.5239 97.4762 28.4277C99.4855 26.3316 100.49 23.7528 100.49 20.6913C100.49 17.6574 99.4855 15.0855 97.4762 12.9755C95.4668 10.8656 93.0447 9.81061 90.2096 9.81061C87.0718 9.81061 84.6634 10.9828 82.9843 13.3272V10.3484H78.5253V39.3084H82.9843ZM89.5077 27.3107C87.636 27.3107 86.0809 26.6901 84.8423 25.449C83.6037 24.1803 82.9843 22.5944 82.9843 20.6913C82.9843 18.7882 83.6037 17.2092 84.8423 15.9543C86.0809 14.6993 87.636 14.0719 89.5077 14.0719C91.3794 14.0719 92.9346 14.6993 94.1732 15.9543C95.4118 17.2092 96.0311 18.7882 96.0311 20.6913C96.0311 22.5944 95.4118 24.1734 94.1732 25.4283C92.9346 26.6832 91.3794 27.3107 89.5077 27.3107ZM114.28 31.572C117.335 31.572 119.916 30.5239 122.021 28.4277C124.127 26.3316 125.18 23.7528 125.18 20.6913C125.18 17.6298 124.127 15.051 122.021 12.9548C119.916 10.8587 117.335 9.81061 114.28 9.81061C111.252 9.81061 108.679 10.8587 106.559 12.9548C104.44 15.051 103.38 17.6298 103.38 20.6913C103.38 23.7528 104.44 26.3316 106.559 28.4277C108.679 30.5239 111.252 31.572 114.28 31.572ZM114.28 27.228C112.463 27.228 110.936 26.6074 109.697 25.3663C108.459 24.1251 107.839 22.5668 107.839 20.6913C107.839 18.8158 108.459 17.2575 109.697 16.0163C110.936 14.7752 112.463 14.1546 114.28 14.1546C116.097 14.1546 117.624 14.7752 118.863 16.0163C120.102 17.2575 120.721 18.8158 120.721 20.6913C120.721 22.5668 120.102 24.1251 118.863 25.3663C117.624 26.6074 116.097 27.228 114.28 27.228ZM136.74 31.572C139.658 31.572 141.791 30.5101 143.14 28.3864V31.0341H147.599V10.3484H143.14V21.436C143.14 23.4494 142.658 24.9456 141.695 25.9248C140.731 26.9039 139.465 27.3935 137.896 27.3935C136.465 27.3935 135.336 26.9797 134.511 26.1523C133.685 25.3249 133.272 24.1389 133.272 22.5944V10.3484H128.813V23.0495C128.813 25.6972 129.543 27.7796 131.001 29.2965C132.46 30.8135 134.373 31.572 136.74 31.572ZM159.737 31.572C162.049 31.572 163.969 31.0066 165.497 29.8757C167.024 28.7449 167.788 27.1866 167.788 25.2008C167.788 23.7941 167.41 22.6288 166.653 21.7049C165.896 20.7809 164.967 20.1259 163.866 19.7397C162.765 19.3536 161.671 19.0157 160.584 18.7261C159.496 18.4365 158.574 18.0918 157.817 17.6919C157.06 17.2919 156.682 16.7472 156.682 16.0577C156.682 15.3406 156.971 14.7959 157.549 14.4235C158.127 14.0512 158.843 13.865 159.696 13.865C161.568 13.865 162.861 14.6511 163.577 16.2232L167.334 14.1132C166.618 12.7618 165.593 11.7068 164.258 10.9483C162.923 10.1898 161.402 9.81061 159.696 9.81061C157.549 9.81061 155.753 10.3898 154.308 11.5482C152.863 12.7066 152.14 14.2373 152.14 16.1404C152.14 17.5195 152.519 18.6572 153.276 19.5536C154.033 20.45 154.962 21.0912 156.063 21.4773C157.164 21.8635 158.258 22.2013 159.345 22.4909C160.432 22.7805 161.354 23.1322 162.111 23.5459C162.868 23.9596 163.247 24.4975 163.247 25.1594C163.247 26.7039 162.077 27.4762 159.737 27.4762C157.398 27.4762 155.87 26.4833 155.154 24.4975L151.315 26.7315C151.975 28.2485 153.035 29.4344 154.494 30.2895C155.953 31.1445 157.7 31.572 159.737 31.572ZM181.248 31.572C185.239 31.572 188.253 30.0688 190.29 27.0625L186.615 24.9112C185.432 26.6212 183.656 27.4762 181.289 27.4762C179.583 27.4762 178.138 27.0556 176.954 26.2144C175.77 25.3732 175.013 24.1665 174.683 22.5944H191.115C191.226 21.8221 191.281 21.2015 191.281 20.7327C191.281 17.6988 190.31 15.1199 188.37 12.9962C186.429 10.8725 183.945 9.81061 180.918 9.81061C177.725 9.81061 175.11 10.8518 173.073 12.9341C171.036 15.0165 170.018 17.6022 170.018 20.6913C170.018 23.8355 171.05 26.435 173.114 28.4898C175.179 30.5446 177.89 31.572 181.248 31.572ZM186.78 18.9537H174.642C174.945 17.3816 175.647 16.1404 176.748 15.2303C177.849 14.3201 179.225 13.865 180.876 13.865C182.335 13.865 183.608 14.2925 184.695 15.1475C185.783 16.0025 186.478 17.2712 186.78 18.9537ZM204.823 31.572C206.832 31.572 208.663 31.0893 210.314 30.124C211.966 29.1586 213.232 27.8485 214.112 26.1937L210.273 24.001C209.777 24.9663 209.041 25.7386 208.064 26.3178C207.087 26.897 205.993 27.1866 204.782 27.1866C202.965 27.1866 201.444 26.566 200.219 25.3249C198.994 24.0837 198.382 22.5392 198.382 20.6913C198.382 18.8434 198.994 17.2988 200.219 16.0577C201.444 14.8165 202.965 14.196 204.782 14.196C206.02 14.196 207.114 14.4787 208.064 15.0441C209.013 15.6095 209.722 16.3887 210.19 17.3816L214.03 15.1475C213.204 13.5202 211.966 12.2239 210.314 11.2586C208.663 10.2933 206.832 9.81061 204.823 9.81061C201.713 9.81061 199.118 10.8518 197.04 12.9341C194.962 15.0165 193.923 17.6022 193.923 20.6913C193.923 23.7528 194.962 26.3316 197.04 28.4277C199.118 30.5239 201.713 31.572 204.823 31.572ZM221.792 31.0341V0.833008H217.333V31.0341H221.792ZM234.467 31.572C237.385 31.572 239.518 30.5101 240.867 28.3864V31.0341H245.326V10.3484H240.867V21.436C240.867 23.4494 240.385 24.9456 239.421 25.9248C238.458 26.9039 237.192 27.3935 235.623 27.3935C234.192 27.3935 233.063 26.9797 232.238 26.1523C231.412 25.3249 230.999 24.1389 230.999 22.5944V10.3484H226.54V23.0495C226.54 25.6972 227.269 27.7796 228.728 29.2965C230.187 30.8135 232.1 31.572 234.467 31.572ZM262.212 31.572C265.047 31.572 267.469 30.517 269.479 28.4071C271.488 26.2971 272.493 23.7252 272.493 20.6913C272.493 17.6298 271.488 15.051 269.479 12.9548C267.469 10.8587 265.047 9.81061 262.212 9.81061C259.074 9.81061 256.666 10.969 254.987 13.2858V2.07415H250.528V31.0341H254.987V28.0554C256.666 30.3998 259.074 31.572 262.212 31.572ZM261.51 27.3107C259.638 27.3107 258.083 26.6901 256.845 25.449C255.606 24.1803 254.987 22.5944 254.987 20.6913C254.987 18.7882 255.606 17.2092 256.845 15.9543C258.083 14.6993 259.638 14.0719 261.51 14.0719C263.382 14.0719 264.937 14.6993 266.176 15.9543C267.414 17.2092 268.034 18.7882 268.034 20.6913C268.034 22.5944 267.414 24.1734 266.176 25.4283C264.937 26.6832 263.382 27.3107 261.51 27.3107Z" fill="#FB8251"/>
<path d="M44.2227 20.4316C44.2131 20.4316 44.2032 20.4316 44.1936 20.4316C39.2874 20.4088 32.0982 14.7713 25.0549 6.61159C25.0438 6.59871 25.0327 6.5856 25.0216 6.57272C25.0183 6.56895 25.0145 6.56451 25.0112 6.56073C25.0014 6.54941 24.9921 6.53874 24.9823 6.52742C24.9765 6.52053 24.9699 6.51276 24.9639 6.50588C24.9581 6.49922 24.9528 6.49278 24.9468 6.48611C24.939 6.47701 24.9324 6.46923 24.9246 6.46013C24.8926 6.42304 24.86 6.38484 24.828 6.34754C24.818 6.33665 24.8082 6.32599 24.7982 6.31489C24.8082 6.32599 24.818 6.33665 24.828 6.34754C28.9145 1.85396 33.1851 0.000259399 37.0102 0.000259399C44.5958 0.000259399 50.4258 7.29226 49.5722 15.7531C49.5697 15.7615 49.5671 15.7697 49.5644 15.7786C48.5673 19.0112 46.6845 20.4316 44.2234 20.4316H44.2227Z" fill="url(#paint0_linear)"/>
<path d="M12.7245 1.46218C16.2689 1.46218 20.1131 3.16842 23.5116 7.14965C30.8769 15.7777 38.4437 21.8056 43.6221 21.8061C45.858 21.8063 47.6482 20.6832 48.7857 18.1604C49.0815 17.5043 49.3332 16.7534 49.5369 15.9032L49.5723 15.7522C49.384 17.6219 48.869 19.5491 47.9747 21.4667C47.9745 21.4672 47.9745 21.4672 47.9742 21.4676L47.9589 21.5003C47.9589 21.5007 47.9585 21.5012 47.9585 21.5014C47.956 21.5067 47.9538 21.5116 47.9511 21.5167C47.9509 21.5174 47.9507 21.5178 47.9505 21.5185C47.9483 21.5229 47.946 21.5278 47.944 21.5322C47.9434 21.5336 47.9429 21.5345 47.9423 21.5358L47.9363 21.5485C47.9356 21.5498 47.9349 21.5513 47.9343 21.5527C47.9325 21.5565 47.9309 21.56 47.9292 21.5638C47.928 21.5658 47.9272 21.568 47.926 21.57C47.9247 21.5731 47.9232 21.5764 47.9216 21.5795C47.9205 21.582 47.9192 21.5844 47.918 21.5869C47.9169 21.5895 47.9158 21.592 47.9145 21.5944L47.9098 21.6044C47.9089 21.6062 47.9081 21.6082 47.9072 21.61C47.9054 21.6137 47.9036 21.6173 47.9018 21.6209C47.901 21.6231 47.8998 21.6253 47.8987 21.6275C47.8972 21.6311 47.8954 21.6346 47.8936 21.6382L47.8916 21.6424L47.8856 21.6551L47.8843 21.6575C47.8794 21.6682 47.8743 21.6784 47.8694 21.689C47.8692 21.689 47.869 21.6895 47.869 21.6897C47.4524 22.554 46.9584 23.4159 46.3817 24.2694L46.3657 24.2934C43.9019 27.9306 38.0497 33.6849 30.8956 38.2378C29.0497 39.4126 26.9388 40 24.8279 40C22.7173 40 20.6064 39.4126 18.76 38.2378C11.6775 33.7305 5.87104 28.0456 3.36504 24.4031L3.29011 24.2934C-3.00431 11.9566 3.93659 1.46218 12.7245 1.46218ZM27.5926 9.43464L27.8038 9.65894C33.7176 15.9183 39.5114 20.1144 43.7459 20.4143L43.8964 20.4234C39.6494 20.215 33.7883 15.9937 27.8039 9.65925L27.5926 9.43464ZM22.6399 4.20143L22.5173 4.09606C19.2402 1.29558 15.9205 0.0612826 12.8743 0.00223137L12.6464 2.03022e-08C15.793 -0.000184306 19.2409 1.25477 22.6399 4.20143Z" fill="url(#paint1_linear)"/>
<mask id="mask0" mask-type="alpha" maskUnits="userSpaceOnUse" x="0" y="0" width="50" height="25">
<path d="M43.6221 21.8061C38.4437 21.8056 30.8769 15.7777 23.5116 7.14965C20.1131 3.16842 16.2689 1.46218 12.7245 1.46218C3.9366 1.46218 -3.0043 11.9566 3.29012 24.2934C0.995142 20.9055 0 17.3847 0 14.109C0.000666241 6.36882 5.55556 0 12.6455 0C16.4699 0 20.7423 1.85481 24.8279 6.34728C31.9576 14.6657 39.2634 20.4314 44.2226 20.4314C46.6906 20.4314 48.5774 19.0036 49.5723 15.7522C49.3627 16.6647 49.0989 17.4657 48.7857 18.1604C47.6482 20.6832 45.858 21.8063 43.6221 21.8061Z" fill="white"/>
</mask>
<g mask="url(#mask0)">
<path d="M43.6221 21.8061C38.4437 21.8056 30.8769 15.7777 23.5116 7.14965C20.1131 3.16842 16.2689 1.46218 12.7245 1.46218C3.9366 1.46218 -3.0043 11.9566 3.29012 24.2934C0.995142 20.9055 0 17.3847 0 14.109C0.000666241 6.36882 5.55556 0 12.6455 0C16.4699 0 20.7423 1.85481 24.8279 6.34728C31.9576 14.6657 39.2634 20.4314 44.2226 20.4314C46.6906 20.4314 48.5774 19.0036 49.5723 15.7522C49.3627 16.6647 49.0989 17.4657 48.7857 18.1604C47.6482 20.6832 45.858 21.8063 43.6221 21.8061Z" fill="url(#paint2_linear)"/>
</g>
<defs>
<linearGradient id="paint0_linear" x1="34.8731" y1="2.50497" x2="25.4894" y2="14.9189" gradientUnits="userSpaceOnUse">
<stop stop-color="#FB7842"/>
<stop offset="0.0547936" stop-color="#FB7842"/>
<stop offset="1" stop-color="#C25A2F"/>
</linearGradient>
<linearGradient id="paint1_linear" x1="-1.5052" y1="19.9999" x2="49.5723" y2="19.9999" gradientUnits="userSpaceOnUse">
<stop stop-color="#FB8251"/>
<stop offset="0.0547936" stop-color="#FB8251"/>
<stop offset="1" stop-color="#FB9551"/>
</linearGradient>
<linearGradient id="paint2_linear" x1="0.895168" y1="13.7801" x2="49.5666" y2="13.1746" gradientUnits="userSpaceOnUse">
<stop stop-color="#FC9D4E"/>
<stop offset="1" stop-color="#FB8251"/>
</linearGradient>
</defs>
</svg>
