<svg width="80" height="80" viewBox="0 0 80 80" fill="none" xmlns="http://www.w3.org/2000/svg">
<rect x="1" y="1" width="78.0001" height="78" rx="15" stroke="#F4F4F4" stroke-width="2"/>
<path d="M32.0978 24.2989C31.8301 24.1203 31.5189 24.0177 31.1974 24.0021C30.8759 23.9865 30.5562 24.0584 30.2725 24.2103C29.9887 24.3621 29.7514 24.5881 29.586 24.8643C29.4207 25.1404 29.3333 25.4562 29.3334 25.778V54.2225C29.3333 54.5443 29.4207 54.8602 29.586 55.1363C29.7514 55.4124 29.9887 55.6384 30.2725 55.7903C30.5562 55.9421 30.8759 56.0141 31.1974 55.9984C31.5189 55.9828 31.8301 55.8802 32.0978 55.7016L53.4312 41.4794C53.6747 41.317 53.8743 41.0971 54.0124 40.8391C54.1504 40.581 54.2227 40.2929 54.2227 40.0003C54.2227 39.7076 54.1504 39.4195 54.0124 39.1615C53.8743 38.9035 53.6747 38.6835 53.4312 38.5212L32.0978 24.2989ZM32.8889 50.8998V29.1007L49.2445 40.0003L32.8889 50.8998Z" fill="#F4F4F4"/>
</svg>
