<svg width="145" height="85" viewBox="0 0 145 85" fill="none" xmlns="http://www.w3.org/2000/svg">
<path fill-rule="evenodd" clip-rule="evenodd" d="M18.7822 0.723716C18.9057 0.476727 18.8056 0.176391 18.5586 0.0528959C18.3117 -0.0705987 18.0113 0.0295135 17.8878 0.276503C17.8079 0.436261 17.5843 0.708241 17.2807 0.99757C16.9843 1.27996 16.6743 1.5199 16.4709 1.63291C15.8001 2.00555 15.1812 2.52965 14.6074 3.04513C14.4692 3.16929 14.3341 3.29245 14.2012 3.41365C13.7677 3.80887 13.3571 4.18322 12.9367 4.50296L12.9271 4.51023C8.85969 7.60375 5.29756 10.313 0.373911 11.5974C0.106711 11.6671 -0.0533911 11.9402 0.0163133 12.2074C0.0851209 12.4712 0.352139 12.6306 0.616018 12.5676C0.620933 12.5688 0.625882 12.5699 0.630863 12.5709C0.746128 12.5946 0.861409 12.6195 0.97669 12.6456C1.01622 12.6602 1.0581 12.67 1.10161 12.6743C6.23355 13.8709 11.3558 17.3298 15.101 21.0325C15.2144 21.1446 15.3564 21.274 15.5022 21.4069L15.5025 21.4071C15.5537 21.4539 15.6055 21.501 15.6566 21.548C15.8606 21.7354 16.0704 21.9338 16.2617 22.1396C16.6696 22.5786 16.8939 22.9499 16.9093 23.2268C16.9149 23.3278 16.9468 23.4457 16.9684 23.5191C16.9946 23.6084 17.029 23.7089 17.0654 23.7967C17.0833 23.84 17.1051 23.8886 17.1301 23.9344L17.1312 23.9364C17.1464 23.9643 17.1984 24.0597 17.2913 24.1346C17.3363 24.1709 17.4882 24.2814 17.7058 24.2433C17.9419 24.2019 18.0485 24.0255 18.0822 23.9546C18.1183 23.8784 18.1293 23.8085 18.1336 23.7746C18.1388 23.7337 18.1401 23.6949 18.1401 23.6623C18.1401 23.496 18.0589 23.3486 17.934 23.2577L17.9279 23.2374C17.9166 23.1991 17.9112 23.1757 17.9088 23.1653L17.9088 23.1653C17.9078 23.1609 17.9073 23.1587 17.9071 23.1588L17.9071 23.1604C17.8657 22.4996 17.4041 21.9 16.9942 21.4589C16.7753 21.2234 16.5421 21.0037 16.3333 20.8117C16.2727 20.7561 16.2152 20.7037 16.1609 20.6541C16.0212 20.5268 15.902 20.4181 15.8041 20.3214C12.7246 17.2769 8.69808 14.3544 4.43769 12.6785C23.3654 12.7088 41.8164 13.2083 59.2612 21.368C69.3707 26.0966 74.7097 28.5995 79.4639 31.8495C84.2142 35.097 88.3908 39.0979 96.1463 46.8534C96.3416 47.0487 96.6582 47.0487 96.8534 46.8534C97.0487 46.6582 97.0487 46.3416 96.8534 46.1463C89.1089 38.4018 84.8682 34.3327 80.0282 31.024C75.192 27.7178 69.7676 25.1783 59.6849 20.4622C41.6794 12.0403 22.6359 11.6915 3.33916 11.6772C7.12793 10.1774 10.1905 7.84804 13.467 5.35599L13.542 5.2989C14.0015 4.94947 14.4576 4.53351 14.8976 4.13223L14.8976 4.13217C15.0251 4.01589 15.1513 3.90085 15.2757 3.78902C15.8449 3.27769 16.3922 2.82056 16.9565 2.50707C17.2644 2.336 17.6444 2.03234 17.9706 1.72148C18.2895 1.41757 18.6208 1.04665 18.7822 0.723716ZM18.0078 23.4552L18.0061 23.4519C18.0119 23.4611 18.0123 23.4635 18.0078 23.4552Z" fill="#FB8251"/>
<path d="M54.2147 79.056C54.0867 79.056 53.9427 78.952 53.7827 78.744C53.6227 78.536 53.5507 78.336 53.5667 78.144C53.5827 77.888 53.6547 77.52 53.7827 77.04C53.9107 76.56 54.0547 76.072 54.2147 75.576C54.3747 75.08 54.5187 74.688 54.6467 74.4C54.7107 74.144 54.7667 73.92 54.8147 73.728C54.8787 73.52 54.9187 73.384 54.9347 73.32C54.9827 73.256 55.0547 73.088 55.1507 72.816C55.2627 72.544 55.3507 72.28 55.4147 72.024C55.4467 71.896 55.5107 71.656 55.6067 71.304C55.7187 70.936 55.8467 70.512 55.9907 70.032C56.1507 69.552 56.3027 69.08 56.4467 68.616C56.6067 68.152 56.7427 67.744 56.8547 67.392C56.9667 67.04 57.0387 66.808 57.0707 66.696C57.1987 66.504 57.2947 66.32 57.3587 66.144C57.4227 65.968 57.4627 65.848 57.4787 65.784C57.5747 65.72 57.6307 65.64 57.6467 65.544C57.6627 65.432 57.6707 65.344 57.6707 65.28C57.6707 65.2 57.6947 65.136 57.7427 65.088C57.8067 65.04 57.8387 64.984 57.8387 64.92C57.9027 64.872 57.9427 64.8 57.9587 64.704C57.9747 64.592 58.0227 64.496 58.1027 64.416L58.2227 64.008L59.6387 63.984C59.6067 64.176 59.5587 64.416 59.4947 64.704C59.4307 64.976 59.2787 65.344 59.0387 65.808C58.9587 66.128 58.8627 66.416 58.7507 66.672C58.6547 66.928 58.6147 67.096 58.6307 67.176C58.5987 67.208 58.5267 67.368 58.4147 67.656C58.3187 67.944 58.1987 68.296 58.0547 68.712C57.9267 69.128 57.7907 69.544 57.6467 69.96C57.5187 70.376 57.3987 70.744 57.2867 71.064C57.1907 71.368 57.1267 71.56 57.0947 71.64C56.9667 71.896 56.8227 72.272 56.6627 72.768C56.5027 73.264 56.2627 73.936 55.9427 74.784C55.8147 75.04 55.6547 75.424 55.4627 75.936C55.2867 76.448 55.1427 76.912 55.0307 77.328C54.8547 77.952 54.7267 78.384 54.6467 78.624C54.5827 78.88 54.5267 79.016 54.4787 79.032C54.4307 79.064 54.3427 79.072 54.2147 79.056ZM54.4067 64.752C53.9587 64.768 53.6227 64.744 53.3987 64.68C53.1907 64.616 53.1187 64.456 53.1827 64.2C53.2307 64.008 53.3347 63.864 53.4947 63.768C53.6547 63.672 53.8867 63.6 54.1907 63.552C54.3667 63.52 54.5907 63.48 54.8627 63.432C55.1507 63.384 55.4227 63.336 55.6787 63.288C56.2067 63.224 56.6387 63.168 56.9747 63.12C57.3267 63.072 57.6867 63.032 58.0547 63C58.4227 62.968 58.8867 62.936 59.4467 62.904C59.9107 62.872 60.3027 62.848 60.6227 62.832C60.9587 62.8 61.1267 62.784 61.1267 62.784C61.1747 62.784 61.3427 62.8 61.6307 62.832C61.9187 62.864 62.2307 62.904 62.5667 62.952C62.9027 63 63.1507 63.056 63.3107 63.12C63.6787 63.2 63.9427 63.312 64.1027 63.456C64.2787 63.6 64.3987 63.808 64.4627 64.08C64.5107 64.272 64.5107 64.392 64.4627 64.44C64.4147 64.472 64.3267 64.52 64.1987 64.584C63.8307 64.696 63.5587 64.752 63.3827 64.752C63.2067 64.752 63.0067 64.712 62.7827 64.632C62.7027 64.552 62.6067 64.48 62.4947 64.416C62.3987 64.352 62.2227 64.304 61.9667 64.272C61.7267 64.224 61.3427 64.184 60.8147 64.152C60.3667 64.2 59.9747 64.224 59.6387 64.224C59.3027 64.224 59.1347 64.264 59.1347 64.344L57.7187 64.416L56.5427 64.536C56.3827 64.552 56.1587 64.576 55.8707 64.608C55.5827 64.624 55.3027 64.648 55.0307 64.68C54.7587 64.696 54.5507 64.72 54.4067 64.752ZM63.7881 77.688C63.2441 77.832 62.8601 77.904 62.6361 77.904C62.4121 77.904 62.1721 77.792 61.9161 77.568C61.8361 77.488 61.7881 77.408 61.7721 77.328C61.7561 77.232 61.7161 77.176 61.6521 77.16C61.6361 77.048 61.6441 76.96 61.6761 76.896C61.7241 76.816 61.8281 76.744 61.9881 76.68C62.2281 76.824 62.5321 76.864 62.9001 76.8C63.2681 76.736 63.6281 76.6 63.9801 76.392C64.3481 76.168 64.6361 75.904 64.8441 75.6C65.1641 75.216 65.4121 74.856 65.5881 74.52C65.7641 74.168 65.8601 73.856 65.8761 73.584C65.8761 73.424 65.8521 73.312 65.8041 73.248C65.7721 73.168 65.6921 73.048 65.5641 72.888C65.2761 72.984 65.0121 73.096 64.7721 73.224C64.5481 73.352 64.3641 73.488 64.2201 73.632C63.7401 74.032 63.3641 74.36 63.0921 74.616C62.8361 74.872 62.6121 75.128 62.4201 75.384C62.2441 75.64 62.0201 75.984 61.7481 76.416C61.6201 76.576 61.5001 76.696 61.3881 76.776C61.2921 76.856 61.1881 76.896 61.0761 76.896C61.1241 77.216 61.0121 77.408 60.7401 77.472C60.3881 77.392 60.1321 77.288 59.9721 77.16C59.8121 77.016 59.7641 76.744 59.8281 76.344C59.8921 76.12 59.9561 75.856 60.0201 75.552C60.0841 75.232 60.1561 74.968 60.2361 74.76C60.6201 73.736 60.9561 72.824 61.2441 72.024C61.5481 71.224 61.8121 70.656 62.0361 70.32L62.5641 68.952C62.8361 68.968 63.0441 69.024 63.1881 69.12C63.3321 69.2 63.5001 69.4 63.6921 69.72C63.6921 69.8 63.6121 70.032 63.4521 70.416C63.3081 70.784 63.1321 71.208 62.9241 71.688C62.7321 72.168 62.5481 72.616 62.3721 73.032C62.2121 73.432 62.1001 73.712 62.0361 73.872C61.9721 74.048 62.0201 74.016 62.1801 73.776C62.3561 73.536 62.6601 73.232 63.0921 72.864C63.3001 72.656 63.5561 72.464 63.8601 72.288C64.1641 72.096 64.4201 71.952 64.6281 71.856C64.8521 71.76 65.0361 71.704 65.1801 71.688C65.3241 71.672 65.4281 71.656 65.4921 71.64C65.8921 71.64 66.2121 71.744 66.4521 71.952C66.6921 72.144 66.8601 72.368 66.9561 72.624C67.0681 72.88 67.1241 73.088 67.1241 73.248C67.1721 73.504 67.2041 73.752 67.2201 73.992C67.2521 74.216 67.2361 74.456 67.1721 74.712C67.1241 74.84 67.0361 75.016 66.9081 75.24C66.7801 75.464 66.6281 75.696 66.4521 75.936C66.2921 76.16 66.1001 76.344 65.8761 76.488C65.7321 76.632 65.5401 76.784 65.3001 76.944C65.0601 77.104 64.8041 77.256 64.5321 77.4C64.2761 77.528 64.0281 77.624 63.7881 77.688ZM68.7801 78.072C68.4921 78.04 68.2521 77.952 68.0601 77.808C67.8841 77.648 67.7561 77.416 67.6761 77.112C67.6761 76.84 67.7081 76.592 67.7721 76.368C67.8521 76.128 67.9161 75.896 67.9641 75.672C68.0441 75.304 68.1561 74.936 68.3001 74.568C68.4441 74.2 68.5721 73.832 68.6841 73.464C68.7801 73.24 68.8601 73.024 68.9241 72.816C68.9881 72.608 69.0521 72.4 69.1161 72.192C69.1961 71.936 69.2761 71.688 69.3561 71.448C69.4361 71.208 69.5161 70.968 69.5961 70.728C69.6601 70.52 69.7081 70.304 69.7401 70.08C69.7881 69.856 69.8281 69.632 69.8601 69.408C70.0361 69.216 70.2281 69.136 70.4361 69.168C70.6601 69.2 70.9321 69.384 71.2521 69.72C71.3321 69.912 71.3721 70.088 71.3721 70.248C71.3721 70.392 71.3321 70.544 71.2521 70.704C71.1881 70.848 71.1001 71.064 70.9881 71.352C70.8921 71.64 70.7881 71.928 70.6761 72.216C70.5801 72.488 70.5081 72.696 70.4601 72.84C70.4281 73.016 70.3401 73.304 70.1961 73.704C70.0681 74.104 69.9321 74.52 69.7881 74.952C69.6441 75.368 69.5401 75.704 69.4761 75.96C69.3801 76.2 69.3081 76.432 69.2601 76.656C69.2121 76.88 69.1641 77.16 69.1161 77.496C69.1481 77.64 69.1241 77.76 69.0441 77.856C68.9801 77.936 68.8921 78.008 68.7801 78.072ZM77.9318 77.568C77.6758 77.488 77.4518 77.368 77.2598 77.208C77.0678 77.032 76.8838 76.84 76.7078 76.632C76.6278 76.536 76.4918 76.344 76.2998 76.056C76.1078 75.768 75.8998 75.448 75.6758 75.096C75.4678 74.744 75.2678 74.416 75.0758 74.112C74.8838 73.792 74.7398 73.552 74.6438 73.392C74.5638 73.632 74.4758 73.832 74.3798 73.992C74.2998 74.136 74.2598 74.368 74.2598 74.688C74.0998 74.912 73.9798 75.168 73.8998 75.456C73.8358 75.728 73.7638 76 73.6838 76.272C73.6358 76.448 73.5558 76.608 73.4438 76.752C73.3478 76.896 73.2198 77.024 73.0598 77.136C72.8678 77.12 72.6998 77.056 72.5558 76.944C72.4278 76.832 72.3158 76.72 72.2198 76.608C72.1238 76.416 72.0838 76.232 72.0998 76.056C72.1158 75.88 72.1558 75.712 72.2198 75.552C72.2518 75.408 72.3398 75.128 72.4838 74.712C72.6438 74.296 72.8118 73.848 72.9878 73.368C73.1638 72.872 73.3238 72.432 73.4678 72.048C73.6118 71.648 73.6918 71.4 73.7078 71.304C73.8038 70.984 73.9718 70.64 74.2118 70.272C74.4678 69.888 74.6438 69.472 74.7398 69.024C74.7718 68.912 74.8518 68.808 74.9798 68.712C75.1078 68.6 75.2518 68.544 75.4118 68.544C75.5878 68.528 75.7318 68.616 75.8438 68.808C75.8758 68.824 75.9238 68.848 75.9878 68.88C76.0518 68.896 76.0998 68.928 76.1318 68.976C76.2598 69.12 76.3318 69.272 76.3478 69.432C76.3798 69.592 76.3478 69.76 76.2518 69.936C76.0438 70.304 75.8678 70.608 75.7238 70.848C75.5958 71.072 75.4678 71.32 75.3398 71.592C75.2118 71.864 75.0678 72.24 74.9078 72.72C75.1798 72.656 75.3798 72.608 75.5078 72.576C75.6358 72.528 75.7558 72.456 75.8678 72.36C75.9958 72.248 76.1638 72.08 76.3718 71.856C76.4518 71.776 76.6118 71.624 76.8518 71.4C77.1078 71.16 77.3718 70.904 77.6438 70.632C77.9318 70.36 78.1798 70.12 78.3878 69.912C78.6118 69.704 78.7318 69.584 78.7478 69.552C78.8438 69.408 78.9398 69.28 79.0358 69.168C79.1478 69.04 79.2918 68.944 79.4678 68.88C79.7078 68.912 79.8758 68.96 79.9718 69.024C80.0678 69.072 80.2518 69.208 80.5238 69.432C80.6038 69.496 80.6358 69.648 80.6198 69.888C80.6038 70.112 80.5158 70.288 80.3558 70.416C80.0678 70.64 79.7078 70.928 79.2758 71.28C78.8438 71.632 78.3798 72 77.8838 72.384C77.4038 72.768 76.9238 73.128 76.4438 73.464C76.6678 73.832 76.8678 74.184 77.0438 74.52C77.2198 74.84 77.3638 75.112 77.4758 75.336C77.5078 75.736 77.6518 76.008 77.9078 76.152C78.1798 76.28 78.5078 76.344 78.8918 76.344C79.0198 76.408 79.0998 76.488 79.1318 76.584C79.1798 76.664 79.2038 76.76 79.2038 76.872C79.2198 76.968 79.2358 77.064 79.2518 77.16C79.0278 77.304 78.8678 77.432 78.7718 77.544C78.6918 77.64 78.5958 77.696 78.4838 77.712C78.3878 77.712 78.2038 77.664 77.9318 77.568ZM88.2551 69.48C88.4791 69.352 88.7111 69.312 88.9511 69.36C89.1911 69.392 89.3751 69.496 89.5031 69.672C89.6471 69.832 89.6711 70.04 89.5751 70.296C89.6071 70.2 89.5671 70.264 89.4551 70.488C89.3591 70.696 89.2311 70.968 89.0711 71.304C88.9271 71.64 88.7911 71.96 88.6631 72.264C88.5511 72.552 88.4791 72.72 88.4471 72.768V72.84C88.7031 72.84 88.8551 72.92 88.9031 73.08C88.9671 73.224 88.9911 73.392 88.9751 73.584C88.7831 73.616 88.6471 73.672 88.5671 73.752C88.4871 73.816 88.3831 73.856 88.2551 73.872C88.2071 73.872 88.1511 73.896 88.0871 73.944C88.0231 73.992 87.9831 74.048 87.9671 74.112C87.9511 74.16 87.9031 74.352 87.8231 74.688C87.7591 75.008 87.6791 75.36 87.5831 75.744C87.5031 76.112 87.4311 76.392 87.3671 76.584C87.3351 76.712 87.2711 76.816 87.1751 76.896C87.0791 76.96 87.0151 77 86.9831 77.016C86.6631 76.888 86.4471 76.808 86.3351 76.776C86.2391 76.728 86.1431 76.664 86.0471 76.584C86.0311 76.488 86.0311 76.376 86.0471 76.248C86.0631 76.104 86.1031 75.936 86.1671 75.744C86.2471 75.504 86.3111 75.28 86.3591 75.072C86.4231 74.848 86.4871 74.536 86.5511 74.136C86.4871 74.104 86.3511 74.104 86.1431 74.136C85.9511 74.152 85.7431 74.176 85.5191 74.208C85.2951 74.24 85.1031 74.272 84.9431 74.304C84.7991 74.336 84.7351 74.344 84.7511 74.328C84.6711 74.36 84.5191 74.384 84.2951 74.4C84.0871 74.4 83.8711 74.392 83.6471 74.376C83.4391 74.344 83.2871 74.312 83.1911 74.28L83.0471 74.352C83.0311 74.512 82.9591 74.752 82.8311 75.072C82.7031 75.376 82.6391 75.664 82.6391 75.936C82.6231 76.144 82.5911 76.352 82.5431 76.56C82.4951 76.768 82.4631 76.984 82.4471 77.208C82.4311 77.56 82.3351 77.776 82.1591 77.856C81.9991 77.936 81.7511 77.88 81.4151 77.688C81.3351 77.64 81.2551 77.584 81.1751 77.52C81.1111 77.456 81.0391 77.384 80.9591 77.304L81.3431 75.456C81.4071 75.232 81.4631 75.024 81.5111 74.832C81.5591 74.624 81.6151 74.424 81.6791 74.232C81.8071 73.88 81.9271 73.52 82.0391 73.152C82.1671 72.784 82.3111 72.44 82.4711 72.12C82.4711 72.12 82.4951 72.04 82.5431 71.88C82.6071 71.704 82.6791 71.512 82.7591 71.304C82.8391 71.08 82.9031 70.904 82.9511 70.776C82.9991 70.648 83.0071 70.624 82.9751 70.704C83.0231 70.608 83.0951 70.424 83.1911 70.152C83.2871 69.864 83.3751 69.592 83.4551 69.336C83.5511 69.064 83.5991 68.92 83.5991 68.904C83.6311 68.808 83.6791 68.744 83.7431 68.712C83.8071 68.664 83.8871 68.64 83.9831 68.64C84.2551 68.624 84.4791 68.688 84.6551 68.832C84.8311 68.96 84.9271 69.12 84.9431 69.312C84.9271 69.408 84.9191 69.496 84.9191 69.576C84.9191 69.656 84.9031 69.72 84.8711 69.768L83.6231 72.816V73.008C83.7831 73.104 84.0151 73.12 84.3191 73.056C84.6391 72.976 84.8791 72.936 85.0391 72.936C85.1191 72.92 85.3031 72.904 85.5911 72.888C85.8951 72.872 86.1831 72.864 86.4551 72.864C86.7431 72.864 86.8951 72.872 86.9111 72.888C87.0871 72.408 87.2471 71.96 87.3911 71.544C87.5351 71.112 87.7351 70.672 87.9911 70.224C88.0071 70.192 88.0391 70.088 88.0871 69.912C88.1511 69.736 88.2071 69.592 88.2551 69.48ZM96.7298 77.952C96.5698 77.792 96.4098 77.576 96.2498 77.304C96.0898 77.016 95.9618 76.688 95.8658 76.32C95.8338 76.192 95.8178 76.016 95.8178 75.792C95.8338 75.568 95.8338 75.408 95.8178 75.312C95.7698 75.424 95.6898 75.544 95.5778 75.672C95.4818 75.784 95.3858 75.88 95.2898 75.96C95.2258 76.024 95.0818 76.152 94.8578 76.344C94.6338 76.52 94.4098 76.664 94.1858 76.776C93.6578 77.112 93.2178 77.296 92.8658 77.328C92.5298 77.36 92.2098 77.184 91.9058 76.8C91.6498 76.592 91.4658 76.36 91.3538 76.104C91.2578 75.848 91.2578 75.496 91.3538 75.048C91.3858 74.488 91.4658 73.944 91.5938 73.416C91.7218 72.872 91.9858 72.152 92.3858 71.256C92.7218 70.6 92.9778 70.12 93.1538 69.816C93.3298 69.496 93.4418 69.304 93.4898 69.24C93.7298 69.16 93.9298 69.168 94.0898 69.264C94.2498 69.344 94.3458 69.496 94.3778 69.72C94.4738 69.88 94.4578 70.152 94.3298 70.536C94.2178 70.92 94.0178 71.392 93.7298 71.952C93.5058 72.496 93.2978 73.04 93.1058 73.584C92.9298 74.128 92.8258 74.592 92.7938 74.976C92.7618 75.36 92.8578 75.592 93.0818 75.672C93.2258 75.752 93.4738 75.728 93.8258 75.6C94.1938 75.472 94.6018 75.152 95.0498 74.64C95.5138 74.128 95.9618 73.352 96.3938 72.312C96.5218 71.992 96.6178 71.712 96.6818 71.472C96.7458 71.216 96.7858 70.936 96.8018 70.632C96.7698 70.44 96.7778 70.272 96.8258 70.128C96.8898 69.968 97.0178 69.832 97.2098 69.72C97.2738 69.64 97.3618 69.568 97.4738 69.504C97.5858 69.424 97.6578 69.424 97.6898 69.504L98.0738 69.48C98.1378 69.464 98.1778 69.504 98.1938 69.6C98.2258 69.68 98.2818 69.752 98.3618 69.816C98.5378 69.96 98.5858 70.272 98.5058 70.752C98.4258 71.232 98.2018 71.904 97.8338 72.768C97.5298 73.424 97.3218 73.92 97.2098 74.256C97.1138 74.592 97.0578 74.92 97.0418 75.24C97.0418 75.528 97.0978 75.8 97.2098 76.056C97.3218 76.312 97.4978 76.544 97.7378 76.752C97.9138 76.864 98.0098 76.992 98.0258 77.136C98.0578 77.28 98.0658 77.448 98.0498 77.64C98.0178 77.784 97.9218 77.904 97.7618 78C97.6178 78.08 97.4498 78.12 97.2578 78.12C97.0658 78.12 96.8898 78.064 96.7298 77.952ZM108.305 77.736C107.841 77.816 107.417 77.792 107.033 77.664C106.649 77.52 106.337 77.288 106.097 76.968C105.873 76.632 105.761 76.208 105.761 75.696C105.713 75.216 105.769 74.664 105.929 74.04C106.089 73.4 106.321 72.76 106.625 72.12C106.945 71.48 107.289 70.928 107.657 70.464C107.977 70.08 108.297 69.728 108.617 69.408C108.937 69.088 109.225 68.872 109.481 68.76C109.705 68.664 109.913 68.608 110.105 68.592C110.313 68.56 110.481 68.544 110.609 68.544C110.865 68.608 111.137 68.728 111.425 68.904C111.729 69.064 111.881 69.24 111.881 69.432C111.881 69.432 111.897 69.456 111.929 69.504C111.977 69.536 112.001 69.552 112.001 69.552C112.097 69.552 112.177 69.656 112.241 69.864C112.321 70.072 112.369 70.312 112.385 70.584C112.401 70.84 112.361 71.056 112.265 71.232C112.201 71.536 112.089 71.8 111.929 72.024C111.769 72.248 111.625 72.36 111.497 72.36C111.433 72.36 111.369 72.368 111.305 72.384C111.257 72.384 111.233 72.424 111.233 72.504C111.233 72.584 111.185 72.616 111.089 72.6C111.009 72.584 110.921 72.536 110.825 72.456C110.729 72.36 110.657 72.248 110.609 72.12C110.609 72.04 110.641 71.904 110.705 71.712C110.769 71.52 110.833 71.272 110.897 70.968C110.993 70.52 110.985 70.232 110.873 70.104C110.761 69.96 110.545 69.952 110.225 70.08C109.825 70.304 109.441 70.616 109.073 71.016C108.721 71.416 108.393 71.936 108.089 72.576C107.785 73.2 107.513 73.984 107.273 74.928C107.177 75.296 107.137 75.616 107.153 75.888C107.185 76.16 107.225 76.304 107.273 76.32C107.497 76.384 107.801 76.4 108.185 76.368C108.569 76.32 108.849 76.248 109.025 76.152C109.281 76.024 109.569 75.856 109.889 75.648C110.209 75.424 110.489 75.224 110.729 75.048C110.809 75 110.905 74.92 111.017 74.808C111.129 74.696 111.249 74.608 111.377 74.544C111.505 74.352 111.617 74.24 111.713 74.208C111.809 74.176 111.953 74.16 112.145 74.16C112.273 74.192 112.393 74.24 112.505 74.304C112.617 74.368 112.689 74.432 112.721 74.496C112.769 74.56 112.745 74.616 112.649 74.664C112.585 74.664 112.545 74.688 112.529 74.736C112.529 74.768 112.529 74.784 112.529 74.784C112.561 74.848 112.489 74.984 112.313 75.192C112.153 75.384 111.945 75.6 111.689 75.84C111.433 76.08 111.185 76.288 110.945 76.464C110.721 76.624 110.561 76.704 110.465 76.704C110.305 76.704 110.225 76.752 110.225 76.848C110.225 76.88 110.105 76.96 109.865 77.088C109.641 77.216 109.377 77.344 109.073 77.472C108.785 77.6 108.529 77.688 108.305 77.736ZM114.7 77.904C114.54 77.76 114.404 77.624 114.292 77.496C114.196 77.368 114.124 77.224 114.076 77.064C114.14 76.968 114.172 76.88 114.172 76.8C114.172 76.704 114.172 76.576 114.172 76.416C114.172 76.16 114.172 75.912 114.172 75.672C114.188 75.416 114.188 75.16 114.172 74.904C114.156 74.664 114.196 74.448 114.292 74.256C114.388 74.064 114.532 73.912 114.724 73.8C114.916 73.688 115.06 73.56 115.156 73.416C115.268 73.272 115.356 73.08 115.42 72.84C115.5 72.552 115.564 72.304 115.612 72.096C115.66 71.888 115.716 71.632 115.78 71.328C115.86 71.008 115.964 70.568 116.092 70.008C116.076 69.88 116.084 69.76 116.116 69.648C116.164 69.536 116.188 69.416 116.188 69.288C116.188 68.952 116.364 68.744 116.716 68.664C116.94 68.728 117.092 68.784 117.172 68.832C117.268 68.864 117.356 68.912 117.436 68.976C117.516 69.04 117.636 69.168 117.796 69.36C117.796 69.424 117.78 69.552 117.748 69.744C117.732 69.936 117.692 70.104 117.628 70.248C117.516 70.6 117.412 70.952 117.316 71.304C117.236 71.656 117.148 72 117.052 72.336C117.036 72.416 117.012 72.504 116.98 72.6C116.964 72.68 116.964 72.768 116.98 72.864L118.828 72.576C118.908 72.56 118.996 72.576 119.092 72.624C119.188 72.656 119.292 72.688 119.404 72.72C119.644 72.256 119.884 71.784 120.124 71.304C120.38 70.808 120.628 70.4 120.868 70.08C121.028 69.856 121.172 69.68 121.3 69.552C121.444 69.424 121.604 69.304 121.78 69.192C121.956 69.016 122.148 68.904 122.356 68.856C122.564 68.792 122.764 68.76 122.956 68.76C123.02 68.824 123.084 68.888 123.148 68.952C123.228 69.016 123.3 69.088 123.364 69.168C123.444 69.232 123.516 69.296 123.58 69.36C123.66 69.424 123.74 69.496 123.82 69.576C124.236 69.528 124.564 69.528 124.804 69.576C125.06 69.608 125.276 69.744 125.452 69.984C125.484 70.032 125.5 70.096 125.5 70.176C125.516 70.24 125.508 70.288 125.476 70.32L124.852 70.872C124.916 70.984 124.972 71.104 125.02 71.232C125.068 71.344 125.124 71.464 125.188 71.592C125.188 71.672 125.164 71.76 125.116 71.856C125.068 71.936 125.068 72.024 125.116 72.12C125.228 72.312 125.268 72.512 125.236 72.72C125.204 72.912 125.196 73.12 125.212 73.344C125.244 73.424 125.228 73.56 125.164 73.752C125.1 73.928 125.028 74.112 124.948 74.304C124.884 74.48 124.844 74.608 124.828 74.688C124.78 74.928 124.684 75.144 124.54 75.336C124.396 75.512 124.284 75.72 124.204 75.96C124.188 75.992 124.156 76.024 124.108 76.056C124.076 76.072 124.028 76.096 123.964 76.128C123.596 76.544 123.22 76.872 122.836 77.112C122.564 77.304 122.316 77.44 122.092 77.52C121.884 77.6 121.668 77.648 121.444 77.664C121.22 77.664 120.94 77.664 120.604 77.664C120.268 77.488 120.052 77.36 119.956 77.28C119.86 77.2 119.796 77.12 119.764 77.04C119.732 76.96 119.62 76.832 119.428 76.656C119.428 76.448 119.348 76.232 119.188 76.008C119.22 75.88 119.22 75.752 119.188 75.624C119.156 75.496 119.14 75.376 119.14 75.264V73.896C118.932 73.816 118.796 73.816 118.732 73.896C118.668 73.96 118.58 73.984 118.468 73.968C118.26 74.08 118.028 74.168 117.772 74.232C117.532 74.28 117.34 74.32 117.196 74.352C117.036 74.4 116.876 74.464 116.716 74.544C116.556 74.624 116.452 74.696 116.404 74.76C116.244 74.92 116.148 75.136 116.116 75.408C116.116 75.472 116.076 75.616 115.996 75.84C115.932 76.064 115.86 76.296 115.78 76.536C115.716 76.776 115.676 76.944 115.66 77.04C115.66 77.12 115.62 77.256 115.54 77.448C115.476 77.64 115.412 77.752 115.348 77.784C115.252 77.848 115.156 77.896 115.06 77.928C114.964 77.96 114.844 77.952 114.7 77.904ZM121.492 76.152C121.764 76.024 122.044 75.832 122.332 75.576C122.62 75.32 122.964 74.896 123.364 74.304C123.54 73.952 123.66 73.688 123.724 73.512C123.804 73.336 123.844 73.152 123.844 72.96C123.86 72.768 123.868 72.488 123.868 72.12C123.852 71.656 123.732 71.28 123.508 70.992C123.3 70.688 123.092 70.384 122.884 70.08C122.644 70.384 122.396 70.656 122.14 70.896C121.884 71.136 121.62 71.536 121.348 72.096C121.14 72.544 120.94 72.968 120.748 73.368C120.556 73.752 120.484 74.232 120.532 74.808C120.532 75.144 120.556 75.384 120.604 75.528C120.652 75.672 120.684 75.832 120.7 76.008C120.732 76.136 120.836 76.208 121.012 76.224C121.188 76.24 121.348 76.216 121.492 76.152ZM128.736 77.856C128.688 77.872 128.576 77.848 128.4 77.784C128.224 77.704 128.032 77.608 127.824 77.496C127.632 77.368 127.48 77.248 127.368 77.136C127.24 76.976 127.12 76.816 127.008 76.656C126.912 76.48 126.864 76.28 126.864 76.056C126.752 75.816 126.688 75.568 126.672 75.312C126.672 75.04 126.664 74.776 126.648 74.52C126.632 74.12 126.72 73.712 126.912 73.296C127.104 72.864 127.256 72.544 127.368 72.336C127.448 72.112 127.608 71.824 127.848 71.472C128.104 71.104 128.416 70.744 128.784 70.392C129.152 70.04 129.536 69.768 129.936 69.576C130.192 69.448 130.448 69.344 130.704 69.264C130.976 69.168 131.288 69.184 131.64 69.312C131.816 69.36 131.944 69.424 132.024 69.504C132.104 69.584 132.192 69.664 132.288 69.744C132.416 69.648 132.52 69.416 132.6 69.048C132.696 68.664 132.752 68.232 132.768 67.752C132.8 67.256 132.776 66.784 132.696 66.336C132.632 65.872 132.496 65.504 132.288 65.232C131.904 64.704 131.48 64.36 131.016 64.2C130.552 64.04 130.024 64.088 129.432 64.344C129.24 64.264 129.064 64.112 128.904 63.888C128.76 63.664 128.72 63.44 128.784 63.216C128.912 63.104 129.072 62.992 129.264 62.88C129.456 62.768 129.648 62.696 129.84 62.664C130.064 62.616 130.288 62.584 130.512 62.568C130.752 62.552 131 62.616 131.256 62.76C132.088 63.032 132.712 63.416 133.128 63.912C133.56 64.392 133.856 64.976 134.016 65.664C134.176 66.352 134.272 67.144 134.304 68.04C134.336 68.296 134.344 68.528 134.328 68.736C134.328 68.928 134.304 69.256 134.256 69.72C134.096 69.928 134.032 70.176 134.064 70.464C134.112 70.736 134.08 70.992 133.968 71.232C133.952 71.504 133.888 71.728 133.776 71.904C133.664 72.08 133.608 72.248 133.608 72.408C133.32 73.208 132.928 73.992 132.432 74.76C131.952 75.528 131.4 76.192 130.776 76.752C130.152 77.312 129.472 77.68 128.736 77.856ZM128.592 76.296C128.752 76.36 128.992 76.296 129.312 76.104C129.632 75.896 129.96 75.624 130.296 75.288C130.632 74.936 130.912 74.6 131.136 74.28C131.216 74.168 131.32 73.984 131.448 73.728C131.592 73.472 131.72 73.224 131.832 72.984C131.96 72.744 132.032 72.592 132.048 72.528C132.192 72.128 132.272 71.752 132.288 71.4C132.32 71.032 132.28 70.792 132.168 70.68C131.992 70.472 131.704 70.424 131.304 70.536C130.92 70.648 130.552 70.832 130.2 71.088C129.944 71.28 129.712 71.536 129.504 71.856C129.312 72.16 129.112 72.44 128.904 72.696C128.92 72.808 128.888 72.904 128.808 72.984C128.744 73.064 128.672 73.144 128.592 73.224C128.384 73.624 128.248 74 128.184 74.352C128.12 74.688 128.088 74.896 128.088 74.976C128.088 75.232 128.128 75.496 128.208 75.768C128.288 76.04 128.416 76.216 128.592 76.296ZM135.037 77.136C134.973 77.008 134.893 76.912 134.797 76.848C134.701 76.768 134.653 76.696 134.653 76.632C134.653 76.568 134.645 76.504 134.629 76.44C134.629 76.36 134.597 76.288 134.533 76.224C134.453 76.128 134.461 75.912 134.557 75.576C134.653 75.224 134.813 74.8 135.037 74.304C135.261 73.792 135.525 73.256 135.829 72.696C135.957 72.568 136.085 72.4 136.213 72.192C136.341 71.984 136.437 71.848 136.501 71.784C136.501 71.72 136.525 71.664 136.573 71.616C136.621 71.552 136.677 71.52 136.741 71.52V71.376C136.741 71.296 136.813 71.16 136.957 70.968C137.117 70.776 137.309 70.568 137.533 70.344C137.757 70.104 137.989 69.88 138.229 69.672C138.469 69.448 138.669 69.288 138.829 69.192C139.165 68.968 139.509 68.832 139.861 68.784C140.229 68.736 140.541 68.816 140.797 69.024C140.845 69.072 140.925 69.152 141.037 69.264C141.149 69.376 141.277 69.504 141.421 69.648C141.581 69.776 141.741 69.912 141.901 70.056L142.789 70.848L142.357 72.048C142.149 72.688 142.093 73.248 142.189 73.728C142.301 74.208 142.461 74.624 142.669 74.976C142.749 75.152 142.909 75.32 143.149 75.48C143.405 75.64 143.645 75.736 143.869 75.768C143.997 75.784 144.117 75.832 144.229 75.912C144.341 75.992 144.397 76.12 144.397 76.296C144.397 76.456 144.365 76.584 144.301 76.68C144.237 76.776 144.125 76.84 143.965 76.872C143.437 76.936 142.941 76.808 142.477 76.488C142.029 76.168 141.613 75.64 141.229 74.904C141.165 74.808 141.077 74.632 140.965 74.376C140.869 74.104 140.813 73.928 140.797 73.848C140.733 73.928 140.613 74.08 140.437 74.304C140.261 74.512 140.125 74.664 140.029 74.76C138.893 75.912 137.909 76.688 137.077 77.088C136.261 77.472 135.581 77.488 135.037 77.136ZM135.901 75.792C135.901 75.904 136.069 75.904 136.405 75.792C136.757 75.664 137.133 75.44 137.533 75.12C138.077 74.656 138.621 74.144 139.165 73.584C139.725 73.024 140.173 72.504 140.509 72.024L141.037 71.16C140.877 70.792 140.701 70.544 140.509 70.416C140.333 70.272 140.181 70.2 140.053 70.2C139.845 70.2 139.533 70.392 139.117 70.776C138.717 71.16 138.285 71.672 137.821 72.312C137.357 72.952 136.917 73.656 136.501 74.424C136.341 74.744 136.197 75.056 136.069 75.36C135.957 75.648 135.901 75.792 135.901 75.792Z" fill="#FB8251"/>
</svg>
