<svg width="26" height="26" viewBox="0 0 26 26" fill="none" xmlns="http://www.w3.org/2000/svg">
<path fill-rule="evenodd" clip-rule="evenodd" d="M2.53087 24.7261L8.43848 20H21.75C23.8211 20 25.5 18.3211 25.5 16.25V3.75C25.5 1.67893 23.8211 0 21.75 0H4.25C2.17893 0 0.5 1.67893 0.5 3.75V23.75C0.5 24.7981 1.71241 25.3808 2.53087 24.7261ZM7.21913 17.7739L3 21.1492V3.75C3 3.05964 3.55964 2.5 4.25 2.5H21.75C22.4404 2.5 23 3.05964 23 3.75V16.25C23 16.9404 22.4404 17.5 21.75 17.5H8C7.71616 17.5 7.44077 17.5966 7.21913 17.7739Z" fill="#FB8251"/>
</svg>
