<svg width="24" height="29" viewBox="0 0 24 29" fill="none" xmlns="http://www.w3.org/2000/svg">
<path d="M22 4.5C17.4888 4.5 12.7963 1.035 12.75 1C12.5336 0.837722 12.2705 0.75 12 0.75C11.7295 0.75 11.4664 0.837722 11.25 1C11.2037 1.035 6.51125 4.5 2 4.5C1.66848 4.5 1.35054 4.6317 1.11612 4.86612C0.881696 5.10054 0.75 5.41848 0.75 5.75C0.75 6.5 0.875 24.1613 11.5613 28.1712C11.8436 28.2757 12.1539 28.2757 12.4362 28.1712C23.125 24.1613 23.25 6.5 23.25 5.75C23.25 5.41848 23.1183 5.10054 22.8839 4.86612C22.6495 4.6317 22.3315 4.5 22 4.5ZM12 25.6525C4.75 22.5 3.50625 10.7162 3.29375 6.92875C6.41326 6.45426 9.3876 5.28971 12 3.52C14.6124 5.28971 17.5867 6.45426 20.7062 6.92875C20.5 10.7162 19.25 22.5 12 25.6525ZM7 13.25C7 14.2389 7.29325 15.2056 7.84265 16.0279C8.39206 16.8501 9.17295 17.491 10.0866 17.8694C11.0002 18.2478 12.0055 18.3469 12.9755 18.1539C13.9454 17.961 14.8363 17.4848 15.5355 16.7855C16.2348 16.0863 16.711 15.1954 16.9039 14.2255C17.0969 13.2555 16.9978 12.2502 16.6194 11.3366C16.241 10.423 15.6001 9.64206 14.7779 9.09265C13.9556 8.54324 12.9889 8.25 12 8.25C10.6739 8.25 9.40215 8.77678 8.46447 9.71447C7.52678 10.6521 7 11.9239 7 13.25ZM14.5 13.25C14.5 13.7445 14.3534 14.2278 14.0787 14.6389C13.804 15.05 13.4135 15.3705 12.9567 15.5597C12.4999 15.7489 11.9972 15.7984 11.5123 15.702C11.0273 15.6055 10.5819 15.3674 10.2322 15.0178C9.8826 14.6681 9.6445 14.2227 9.54804 13.7377C9.45157 13.2528 9.50108 12.7501 9.6903 12.2933C9.87952 11.8365 10.2 11.446 10.6111 11.1713C11.0222 10.8966 11.5055 10.75 12 10.75C12.663 10.75 13.2989 11.0134 13.7678 11.4822C14.2366 11.9511 14.5 12.587 14.5 13.25Z" fill="#FB8251"/>
</svg>
