<svg width="26" height="23" viewBox="0 0 26 23" fill="none" xmlns="http://www.w3.org/2000/svg">
<path fill-rule="evenodd" clip-rule="evenodd" d="M2.80875 13.051L13 22.7498L23.1912 13.051C24.68 11.6348 25.5 9.74853 25.5 7.73978C25.5 5.73103 24.68 3.84478 23.1912 2.42728C20.4163 -0.213966 16.06 -0.451466 13 1.71103C9.94 -0.451466 5.58375 -0.213966 2.80875 2.42728C1.32 3.84478 0.5 5.73103 0.5 7.73978C0.5 9.74853 1.32 11.6348 2.80875 13.051ZM4.55125 4.18104C5.59625 3.18728 6.9675 2.69104 8.34 2.69104C9.7125 2.69104 11.0837 3.18728 12.1287 4.18104L13 5.01103L13.8712 4.18104C15.96 2.19353 19.36 2.19353 21.4487 4.18104C22.4487 5.13353 23 6.39854 23 7.73978C23 9.08103 22.4487 10.3448 21.4487 11.2973L13 19.3373L4.55125 11.2973C3.55125 10.3448 3 9.08103 3 7.73978C3 6.39728 3.55125 5.13353 4.55125 4.18104Z" fill="#FB8251"/>
</svg>
