<svg width="28" height="27" viewBox="0 0 28 27" fill="none" xmlns="http://www.w3.org/2000/svg">
<path d="M5.25 25.9994C6.35527 25.9953 7.42801 25.625 8.30054 24.9466C9.17307 24.2681 9.79619 23.3196 10.0725 22.2494H17.9275C18.1666 23.2302 18.694 24.1169 19.4417 24.7952C20.1894 25.4735 21.1231 25.9124 22.1225 26.0552C23.1219 26.198 24.1411 26.0382 25.0489 25.5965C25.9566 25.1547 26.7112 24.4512 27.2155 23.5767C27.7198 22.7021 27.9506 21.6966 27.8781 20.6896C27.8057 19.6827 27.4333 18.7206 26.8091 17.9272C26.1848 17.1338 25.3373 16.5456 24.3756 16.2383C23.414 15.931 22.3824 15.9188 21.4137 16.2032L17.52 9.54443C18.224 8.84706 18.7049 7.95624 18.9017 6.98505C19.0985 6.01386 19.0022 5.0061 18.6252 4.08971C18.2481 3.17333 17.6073 2.38963 16.784 1.83813C15.9608 1.28663 14.9922 0.992188 14.0013 0.992188C13.0103 0.992187 12.0417 1.28663 11.2185 1.83813C10.3952 2.38963 9.75438 3.17333 9.37733 4.08971C9.00029 5.0061 8.90405 6.01386 9.10082 6.98505C9.29759 7.95624 9.7785 8.84706 10.4825 9.54443L6.5975 16.2069C6.16005 16.076 5.70659 16.0061 5.25 15.9994C3.92392 15.9994 2.65215 16.5262 1.71447 17.4639C0.776784 18.4016 0.25 19.6733 0.25 20.9994C0.25 22.3255 0.776784 23.5973 1.71447 24.535C2.65215 25.4726 3.92392 25.9994 5.25 25.9994ZM22.75 18.4994C23.2445 18.4994 23.7278 18.646 24.1389 18.9208C24.55 19.1955 24.8705 19.5859 25.0597 20.0427C25.2489 20.4995 25.2984 21.0022 25.202 21.4872C25.1055 21.9721 24.8674 22.4176 24.5178 22.7672C24.1681 23.1168 23.7227 23.3549 23.2377 23.4514C22.7528 23.5479 22.2501 23.4983 21.7933 23.3091C21.3365 23.1199 20.946 22.7995 20.6713 22.3884C20.3966 21.9772 20.25 21.4939 20.25 20.9994C20.25 20.3364 20.5134 19.7005 20.9822 19.2317C21.4511 18.7628 22.087 18.4994 22.75 18.4994ZM14 3.49943C14.4945 3.49943 14.9778 3.64605 15.3889 3.92075C15.8 4.19546 16.1205 4.5859 16.3097 5.04272C16.4989 5.49953 16.5484 6.0022 16.452 6.48715C16.3555 6.9721 16.1174 7.41756 15.7678 7.76719C15.4181 8.11682 14.9727 8.35493 14.4877 8.45139C14.0028 8.54785 13.5001 8.49834 13.0433 8.30912C12.5865 8.11991 12.196 7.79947 11.9213 7.38835C11.6466 6.97723 11.5 6.49388 11.5 5.99943C11.5 5.33638 11.7634 4.7005 12.2322 4.23166C12.7011 3.76282 13.337 3.49943 14 3.49943ZM12.6525 10.7919C13.0899 10.9229 13.5434 10.9927 14 10.9994C14.4585 10.9932 14.9138 10.9225 15.3525 10.7894L19.2425 17.4432C18.6044 18.0794 18.15 18.8762 17.9275 19.7494H10.0725C9.85173 18.8803 9.40094 18.0867 8.7675 17.4519L12.6525 10.7919ZM5.25 18.4994C5.74445 18.4994 6.2278 18.646 6.63893 18.9208C7.05005 19.1955 7.37048 19.5859 7.5597 20.0427C7.74892 20.4995 7.79843 21.0022 7.70196 21.4872C7.6055 21.9721 7.3674 22.4176 7.01777 22.7672C6.66814 23.1168 6.22268 23.3549 5.73773 23.4514C5.25277 23.5479 4.75011 23.4983 4.29329 23.3091C3.83648 23.1199 3.44603 22.7995 3.17133 22.3884C2.89662 21.9772 2.75 21.4939 2.75 20.9994C2.75 20.3364 3.01339 19.7005 3.48223 19.2317C3.95107 18.7628 4.58696 18.4994 5.25 18.4994Z" fill="#FB8251"/>
</svg>
