<svg width="48" height="60" viewBox="0 0 48 60" fill="none" xmlns="http://www.w3.org/2000/svg">
<path d="M48 51.3337V56.667C48 57.3742 47.7191 58.0525 47.219 58.5526C46.7189 59.0527 46.0406 59.3337 45.3333 59.3337C44.6261 59.3337 43.9478 59.0527 43.4477 58.5526C42.9476 58.0525 42.6667 57.3742 42.6667 56.667V51.3337C42.6667 49.2119 41.8238 47.1771 40.3235 45.6768C38.8232 44.1765 36.7884 43.3337 34.6667 43.3337H13.3333C11.2116 43.3337 9.17677 44.1765 7.67648 45.6768C6.17619 47.1771 5.33333 49.2119 5.33333 51.3337V56.667C5.33333 57.3742 5.05238 58.0525 4.55228 58.5526C4.05219 59.0527 3.37391 59.3337 2.66667 59.3337C1.95942 59.3337 1.28115 59.0527 0.781048 58.5526C0.280951 58.0525 0 57.3742 0 56.667V51.3337C0.00423429 47.7987 1.41035 44.4098 3.90992 41.9102C6.40949 39.4107 9.79841 38.0046 13.3333 38.0003H34.6667C38.2016 38.0046 41.5905 39.4107 44.0901 41.9102C46.5897 44.4098 47.9958 47.7987 48 51.3337ZM24 32.667C17.4817 32.9487 11.0962 30.7657 6.11467 26.5523C5.81674 26.2535 5.59398 25.8883 5.46469 25.4866C5.3354 25.0849 5.30328 24.6583 5.37096 24.2418C5.43864 23.8253 5.6042 23.4308 5.85402 23.0908C6.10383 22.7507 6.43079 22.4748 6.808 22.2857C10.52 20.4243 10.6667 14.0563 10.6667 14.0003C10.6667 10.4641 12.0714 7.07272 14.5719 4.57223C17.0724 2.07175 20.4638 0.666992 24 0.666992C27.5362 0.666992 30.9276 2.07175 33.4281 4.57223C35.9286 7.07272 37.3333 10.4641 37.3333 14.0003C37.3333 14.139 37.5013 20.443 41.192 22.2883C41.5692 22.4774 41.8962 22.7534 42.146 23.0934C42.3958 23.4335 42.5614 23.828 42.629 24.2445C42.6967 24.661 42.6646 25.0876 42.5353 25.4893C42.406 25.8909 42.1833 26.2562 41.8853 26.555C36.9034 30.7674 30.518 32.9495 24 32.667ZM12.3973 24.5417C15.9604 26.4548 19.9567 27.4165 24 27.3337C28.0433 27.4166 32.0397 26.4549 35.6027 24.5417C33.3117 21.5002 32.0497 17.8077 32 14.0003C32 11.8786 31.1571 9.84376 29.6569 8.34347C28.1566 6.84318 26.1217 6.00033 24 6.00033C21.8783 6.00033 19.8434 6.84318 18.3431 8.34347C16.8429 9.84376 16 11.8786 16 14.0003C15.9503 17.8077 14.6883 21.5002 12.3973 24.5417Z" fill="#FB8251"/>
</svg>
